<svg xmlns="http://www.w3.org/2000/svg" width="19" height="17" viewBox="0 0 19 17">
  <metadata><?xpacket begin="﻿" id="W5M0MpCehiHzreSzNTczkc9d"?>
<x:xmpmeta xmlns:x="adobe:ns:meta/" x:xmptk="Adobe XMP Core 5.6-c138 79.159824, 2016/09/14-01:09:01        ">
   <rdf:RDF xmlns:rdf="http://www.w3.org/1999/02/22-rdf-syntax-ns#">
      <rdf:Description rdf:about=""/>
   </rdf:RDF>
</x:xmpmeta>
                                                                                                    
                                                                                                    
                                                                                                    
                                                                                                    
                                                                                                    
                                                                                                    
                                                                                                    
                                                                                                    
                                                                                                    
                                                                                                    
                                                                                                    
                                                                                                    
                                                                                                    
                                                                                                    
                                                                                                    
                                                                                                    
                                                                                                    
                                                                                                    
                                                                                                    
                                                                                                    
                           
<?xpacket end="w"?></metadata>
<defs>
    <style>
      .cls-1 {
        fill: #d5d5d5;
        fill-rule: evenodd;
      }
    </style>
  </defs>
  <path id="Удалить" class="cls-1" d="M248.674,178a0.772,0.772,0,0,1-.773-0.639l-2.21-11.626h-0.922a0.753,0.753,0,1,1,0-1.506h5.593v-1.164A2.089,2.089,0,0,1,252.468,161h2.008a2.088,2.088,0,0,1,2.106,2.066v1.164h5.593a0.844,0.844,0,0,1,.823.753,0.752,0.752,0,0,1-.767.753h-0.922L259.1,177.371a0.769,0.769,0,0,1-.771.631h-9.652Zm0.64-1.506h8.315l2.1-10.759H247.273Zm3.154-13.935a0.542,0.542,0,0,0-.572.506v1.164h3.152v-1.164a0.542,0.542,0,0,0-.572-0.506h-2.008Zm-0.949,11.5a0.784,0.784,0,0,1-.768-0.722l-0.278-4.754a0.759,0.759,0,0,1,.735-0.8c0.024,0,.047,0,0.071,0a0.767,0.767,0,0,1,.73.725l0.278,4.754a0.658,0.658,0,0,1-.182.534,0.886,0.886,0,0,1-.542.261h-0.044Zm3.85,0a0.719,0.719,0,0,1-.524-0.234,0.7,0.7,0,0,1-.188-0.55l0.279-4.775a0.764,0.764,0,0,1,.729-0.715c0.024,0,.047,0,0.071,0h0.023a0.725,0.725,0,0,1,.713.785l-0.28,4.773a0.714,0.714,0,0,1-.767.712h-0.056Z" transform="translate(-244 -161)"/>
</svg>
