<svg xmlns="http://www.w3.org/2000/svg" width="16.312" height="15" viewBox="0 0 16.312 15">
  <metadata><?xpacket begin="﻿" id="W5M0MpCehiHzreSzNTczkc9d"?>
<x:xmpmeta xmlns:x="adobe:ns:meta/" x:xmptk="Adobe XMP Core 5.6-c138 79.159824, 2016/09/14-01:09:01        ">
   <rdf:RDF xmlns:rdf="http://www.w3.org/1999/02/22-rdf-syntax-ns#">
      <rdf:Description rdf:about=""/>
   </rdf:RDF>
</x:xmpmeta>
                                                                                                    
                                                                                                    
                                                                                                    
                                                                                                    
                                                                                                    
                                                                                                    
                                                                                                    
                                                                                                    
                                                                                                    
                                                                                                    
                                                                                                    
                                                                                                    
                                                                                                    
                                                                                                    
                                                                                                    
                                                                                                    
                                                                                                    
                                                                                                    
                                                                                                    
                                                                                                    
                           
<?xpacket end="w"?></metadata>
<defs>
    <style>
      .cls-1 {
        fill: #ff4b2d;
        fill-rule: evenodd;
      }
    </style>
  </defs>
  <path id="Войти" class="cls-1" d="M667.693,95.77l-3.609-3.581a1.063,1.063,0,0,0-1.5,1.511l1.218,1.226c0.277,0.279.186,0.505-.205,0.505h-4.85a1.069,1.069,0,0,0,0,2.137h4.85c0.389,0,.483.226,0.205,0.505L662.588,99.3a1.063,1.063,0,1,0,1.5,1.51l3.6-3.543A1.049,1.049,0,0,0,667.693,95.77Zm3.841-4.627H669.42a1.072,1.072,0,0,1,0-2.143H672.6A1.42,1.42,0,0,1,674,90.429v12.142A1.421,1.421,0,0,1,672.6,104H669.42a1.072,1.072,0,0,1,0-2.143h2.114a0.353,0.353,0,0,0,.354-0.356v-10A0.355,0.355,0,0,0,671.534,91.143Z" transform="translate(-657.688 -89)"/>
</svg>
