<svg xmlns="http://www.w3.org/2000/svg" width="16.969" height="17" viewBox="0 0 16.969 17">
  <metadata><?xpacket begin="﻿" id="W5M0MpCehiHzreSzNTczkc9d"?>
<x:xmpmeta xmlns:x="adobe:ns:meta/" x:xmptk="Adobe XMP Core 5.6-c138 79.159824, 2016/09/14-01:09:01        ">
   <rdf:RDF xmlns:rdf="http://www.w3.org/1999/02/22-rdf-syntax-ns#">
      <rdf:Description rdf:about=""/>
   </rdf:RDF>
</x:xmpmeta>
                                                                                                    
                                                                                                    
                                                                                                    
                                                                                                    
                                                                                                    
                                                                                                    
                                                                                                    
                                                                                                    
                                                                                                    
                                                                                                    
                                                                                                    
                                                                                                    
                                                                                                    
                                                                                                    
                                                                                                    
                                                                                                    
                                                                                                    
                                                                                                    
                                                                                                    
                                                                                                    
                           
<?xpacket end="w"?></metadata>
<defs>
    <style>
      .cls-1 {
        fill: #d5d5d5;
        fill-rule: evenodd;
      }
    </style>
  </defs>
  <path id="Рейтинг_пустой" data-name="Рейтинг пустой" class="cls-1" d="M681.789,179c-0.024,0-.049,0-0.073,0a0.927,0.927,0,0,1-.8-1.022l0.435-4.923-3.126-3.711a0.969,0.969,0,0,1,.082-1.326,0.879,0.879,0,0,1,.4-0.21l4.612-1.094,2.423-4.252a0.88,0.88,0,0,1,.767-0.457,0.859,0.859,0,0,1,.452.13,0.923,0.923,0,0,1,.312.327l2.423,4.263L694.3,167.8a0.939,0.939,0,0,1,.673,1.123,0.952,0.952,0,0,1-.2.413l-3.117,3.7,0.435,4.931a0.926,0.926,0,0,1-.81,1.017q-0.039,0-.078,0a0.853,0.853,0,0,1-.348-0.074l-4.352-1.949-4.352,1.949A0.854,0.854,0,0,1,681.789,179Zm4.716-3.991a0.861,0.861,0,0,1,.352.076l3.318,1.5-0.331-3.766a0.977,0.977,0,0,1,.215-0.71l2.384-2.823-3.523-.828a0.9,0.9,0,0,1-.567-0.431l-1.848-3.256-1.849,3.256a0.9,0.9,0,0,1-.567.432l-3.52.827,2.372,2.824a0.971,0.971,0,0,1,.224.709l-0.33,3.753,3.317-1.485A0.851,0.851,0,0,1,686.505,175.008Z" transform="translate(-678 -162)"/>
</svg>
