<svg xmlns="http://www.w3.org/2000/svg" width="12" height="20" viewBox="0 0 12 20">
  <metadata><?xpacket begin="﻿" id="W5M0MpCehiHzreSzNTczkc9d"?>
<x:xmpmeta xmlns:x="adobe:ns:meta/" x:xmptk="Adobe XMP Core 5.6-c138 79.159824, 2016/09/14-01:09:01        ">
   <rdf:RDF xmlns:rdf="http://www.w3.org/1999/02/22-rdf-syntax-ns#">
      <rdf:Description rdf:about=""/>
   </rdf:RDF>
</x:xmpmeta>
                                                                                                    
                                                                                                    
                                                                                                    
                                                                                                    
                                                                                                    
                                                                                                    
                                                                                                    
                                                                                                    
                                                                                                    
                                                                                                    
                                                                                                    
                                                                                                    
                                                                                                    
                                                                                                    
                                                                                                    
                                                                                                    
                                                                                                    
                                                                                                    
                                                                                                    
                                                                                                    
                           
<?xpacket end="w"?></metadata>
<defs>
    <style>
      .cls-1 {
        fill: #ff4b2d;
        fill-rule: evenodd;
      }
    </style>
  </defs>
  <path id="Самовывоз" class="cls-1" d="M513.456,163.629c-0.311.289-3.571,2.859-3.571,2.859a0.8,0.8,0,0,0-.248.514v3.4a0.69,0.69,0,1,0,1.366-.032V167.9a0.8,0.8,0,0,1,.248-0.514l1.739-1.413c0.124-.1.249-0.065,0.249,0.128v4.3a0.631,0.631,0,0,0,.248.514l3.881,3.244a1.213,1.213,0,0,1,.342.514s1.056,3.083,1.491,4.432a0.927,0.927,0,1,0,1.738-.578c-0.248-.8-1.676-4.978-1.676-4.978a1.831,1.831,0,0,0-.342-0.514l-3.074-2.634v-5.4C515.878,164.368,513.8,163.34,513.456,163.629Zm-0.155,8.319s-3.2,5.106-4.068,6.391a0.975,0.975,0,1,0,1.552,1.156c0.746-1.124,3.975-6.391,3.975-6.391Zm3.229-2.473s1.056,0.9,1.8,1.573a0.733,0.733,0,1,0,.9-1.156c-0.746-.706-2.7-2.312-2.7-2.312v1.895Zm-3.2-8.319a2.3,2.3,0,0,0,2.173,2.184c0.5,0,1.149-.064,1.149-1.381S516.313,160,514.822,160A1.278,1.278,0,0,0,513.332,161.156Z" transform="translate(-509 -160)"/>
</svg>
