<svg xmlns="http://www.w3.org/2000/svg" width="16" height="15" viewBox="0 0 16 15">
  <metadata><?xpacket begin="﻿" id="W5M0MpCehiHzreSzNTczkc9d"?>
<x:xmpmeta xmlns:x="adobe:ns:meta/" x:xmptk="Adobe XMP Core 5.6-c138 79.159824, 2016/09/14-01:09:01        ">
   <rdf:RDF xmlns:rdf="http://www.w3.org/1999/02/22-rdf-syntax-ns#">
      <rdf:Description rdf:about=""/>
   </rdf:RDF>
</x:xmpmeta>
                                                                                                    
                                                                                                    
                                                                                                    
                                                                                                    
                                                                                                    
                                                                                                    
                                                                                                    
                                                                                                    
                                                                                                    
                                                                                                    
                                                                                                    
                                                                                                    
                                                                                                    
                                                                                                    
                                                                                                    
                                                                                                    
                                                                                                    
                                                                                                    
                                                                                                    
                                                                                                    
                           
<?xpacket end="w"?></metadata>
<defs>
    <style>
      .cls-1 {
        fill: #d5d5d5;
        fill-rule: evenodd;
      }
    </style>
  </defs>
  <path id="Выйти" class="cls-1" d="M611.307,95.77l3.609-3.581a1.063,1.063,0,0,1,1.5,1.511l-1.218,1.226c-0.278.279-.186,0.505,0.205,0.505h4.85a1.069,1.069,0,0,1,0,2.137H615.4c-0.389,0-.483.226-0.205,0.506l1.218,1.226a1.063,1.063,0,0,1-1.5,1.511l-3.6-3.544A1.048,1.048,0,0,1,611.307,95.77Zm13.227-4.627H622.42a1.072,1.072,0,0,1,0-2.143H625.6A1.42,1.42,0,0,1,627,90.429v12.142A1.421,1.421,0,0,1,625.6,104H622.42a1.072,1.072,0,0,1,0-2.143h2.114a0.352,0.352,0,0,0,.354-0.357v-10A0.355,0.355,0,0,0,624.534,91.143Z" transform="translate(-611 -89)"/>
</svg>
