<svg width="30" height="30" viewBox="0 0 30 30" fill="none" xmlns="http://www.w3.org/2000/svg">
<path d="M0.714286 5.01009H5.77857C5.95258 6.00337 6.47125 6.90348 7.24337 7.55209C8.01549 8.20071 8.9916 8.55629 10 8.55629C11.0084 8.55629 11.9845 8.20071 12.7566 7.55209C13.5287 6.90348 14.0474 6.00337 14.2214 5.01009H29.2857C29.4752 5.01009 29.6568 4.93484 29.7908 4.80088C29.9247 4.66693 30 4.48525 30 4.29581C30 4.10637 29.9247 3.92469 29.7908 3.79073C29.6568 3.65678 29.4752 3.58152 29.2857 3.58152H14.2214C14.0474 2.58825 13.5287 1.68814 12.7566 1.03952C11.9845 0.390907 11.0084 0.035326 10 0.035326C8.9916 0.035326 8.01549 0.390907 7.24337 1.03952C6.47125 1.68814 5.95258 2.58825 5.77857 3.58152H0.714286C0.524845 3.58152 0.343164 3.65678 0.209209 3.79073C0.0752549 3.92469 0 4.10637 0 4.29581C0 4.48525 0.0752549 4.66693 0.209209 4.80088C0.343164 4.93484 0.524845 5.01009 0.714286 5.01009V5.01009ZM10 1.43866C10.5651 1.43866 11.1175 1.60623 11.5873 1.92018C12.0572 2.23413 12.4234 2.68035 12.6397 3.20243C12.8559 3.7245 12.9125 4.29898 12.8022 4.85321C12.692 5.40744 12.4199 5.91653 12.0203 6.31611C11.6207 6.71569 11.1116 6.98781 10.5574 7.09805C10.0032 7.20829 9.42869 7.15171 8.90662 6.93546C8.38454 6.71921 7.93832 6.35301 7.62437 5.88315C7.31043 5.4133 7.14286 4.8609 7.14286 4.29581C7.14286 3.53805 7.44388 2.81132 7.97969 2.2755C8.51551 1.73968 9.24224 1.43866 10 1.43866V1.43866ZM29.2857 14.2958H24.2214C24.0474 13.3025 23.5287 12.4024 22.7566 11.7538C21.9845 11.1052 21.0084 10.7496 20 10.7496C18.9916 10.7496 18.0155 11.1052 17.2434 11.7538C16.4713 12.4024 15.9526 13.3025 15.7786 14.2958H0.714286C0.524845 14.2958 0.343164 14.3711 0.209209 14.505C0.0752549 14.639 0 14.8207 0 15.0101C0 15.1995 0.0752549 15.3812 0.209209 15.5152C0.343164 15.6491 0.524845 15.7244 0.714286 15.7244H15.7786C15.9526 16.7177 16.4713 17.6178 17.2434 18.2664C18.0155 18.915 18.9916 19.2706 20 19.2706C21.0084 19.2706 21.9845 18.915 22.7566 18.2664C23.5287 17.6178 24.0474 16.7177 24.2214 15.7244H29.2857C29.4752 15.7244 29.6568 15.6491 29.7908 15.5152C29.9247 15.3812 30 15.1995 30 15.0101C30 14.8207 29.9247 14.639 29.7908 14.505C29.6568 14.3711 29.4752 14.2958 29.2857 14.2958ZM20 17.8672C19.4349 17.8672 18.8825 17.6997 18.4127 17.3857C17.9428 17.0718 17.5766 16.6255 17.3603 16.1035C17.1441 15.5814 17.0875 15.0069 17.1978 14.4527C17.308 13.8985 17.5801 13.3894 17.9797 12.9898C18.3793 12.5902 18.8884 12.3181 19.4426 12.2078C19.9968 12.0976 20.5713 12.1542 21.0934 12.3704C21.6155 12.5867 22.0617 12.9529 22.3756 13.4228C22.6896 13.8926 22.8571 14.445 22.8571 15.0101C22.8571 15.7679 22.5561 16.4946 22.0203 17.0304C21.4845 17.5662 20.7578 17.8672 20 17.8672V17.8672ZM29.2857 25.0101H14.2214C14.0474 24.0168 13.5287 23.1167 12.7566 22.4681C11.9845 21.8195 11.0084 21.4639 10 21.4639C8.9916 21.4639 8.01549 21.8195 7.24337 22.4681C6.47125 23.1167 5.95258 24.0168 5.77857 25.0101H0.714286C0.524845 25.0101 0.343164 25.0853 0.209209 25.2193C0.0752549 25.3533 0 25.5349 0 25.7244C0 25.9138 0.0752549 26.0955 0.209209 26.2295C0.343164 26.3634 0.524845 26.4387 0.714286 26.4387H5.77857C5.95258 27.4319 6.47125 28.3321 7.24337 28.9807C8.01549 29.6293 8.9916 29.9849 10 29.9849C11.0084 29.9849 11.9845 29.6293 12.7566 28.9807C13.5287 28.3321 14.0474 27.4319 14.2214 26.4387H29.2857C29.4752 26.4387 29.6568 26.3634 29.7908 26.2295C29.9247 26.0955 30 25.9138 30 25.7244C30 25.5349 29.9247 25.3533 29.7908 25.2193C29.6568 25.0853 29.4752 25.0101 29.2857 25.0101ZM10 28.5815C9.43491 28.5815 8.88251 28.414 8.41266 28.1C7.9428 27.7861 7.57659 27.3398 7.36034 26.8178C7.14409 26.2957 7.08751 25.7212 7.19776 25.167C7.308 24.6127 7.58012 24.1037 7.97969 23.7041C8.37927 23.3045 8.88837 23.0324 9.4426 22.9221C9.99683 22.8119 10.5713 22.8685 11.0934 23.0847C11.6155 23.301 12.0617 23.6672 12.3756 24.137C12.6896 24.6069 12.8571 25.1593 12.8571 25.7244C12.8571 26.4821 12.5561 27.2089 12.0203 27.7447C11.4845 28.2805 10.7578 28.5815 10 28.5815Z" fill="black"/>
</svg>
