<svg
 xmlns="http://www.w3.org/2000/svg"
 xmlns:xlink="http://www.w3.org/1999/xlink"
 width="11px" height="17px">
<path fill-rule="evenodd"  fill="rgb(255, 75, 45)"
 d="M3.342,0.720 L9.778,7.155 C10.363,7.741 10.363,8.691 9.778,9.276 C9.192,9.862 8.242,9.862 7.656,9.276 L1.221,2.842 C0.635,2.256 0.635,1.307 1.221,0.720 C1.807,0.135 2.757,0.135 3.342,0.720 Z"/>
<path fill-rule="evenodd"  fill="rgb(255, 75, 45)"
 d="M7.656,7.720 L1.221,14.155 C0.636,14.741 0.636,15.691 1.221,16.276 C1.807,16.862 2.757,16.862 3.343,16.276 L9.778,9.842 C10.363,9.256 10.363,8.306 9.778,7.720 C9.192,7.134 8.242,7.134 7.656,7.720 Z"/>
</svg>
