<svg xmlns="http://www.w3.org/2000/svg" width="17.969" height="16" viewBox="0 0 17.969 16">
  <metadata><?xpacket begin="﻿" id="W5M0MpCehiHzreSzNTczkc9d"?>
<x:xmpmeta xmlns:x="adobe:ns:meta/" x:xmptk="Adobe XMP Core 5.6-c138 79.159824, 2016/09/14-01:09:01        ">
   <rdf:RDF xmlns:rdf="http://www.w3.org/1999/02/22-rdf-syntax-ns#">
      <rdf:Description rdf:about=""/>
   </rdf:RDF>
</x:xmpmeta>
                                                                                                    
                                                                                                    
                                                                                                    
                                                                                                    
                                                                                                    
                                                                                                    
                                                                                                    
                                                                                                    
                                                                                                    
                                                                                                    
                                                                                                    
                                                                                                    
                                                                                                    
                                                                                                    
                                                                                                    
                                                                                                    
                                                                                                    
                                                                                                    
                                                                                                    
                                                                                                    
                           
<?xpacket end="w"?></metadata>
<defs>
    <style>
      .cls-1 {
        fill: #ff4b2d;
        fill-rule: evenodd;
      }
    </style>
  </defs>
  <path id="В_избранное" data-name="В избранное" class="cls-1" d="M296.9,162a4.827,4.827,0,0,0-3.467,1.48,5.148,5.148,0,0,0,0,7.131l6.9,7.11a0.913,0.913,0,0,0,1.311,0q3.458-3.546,6.914-7.1a5.156,5.156,0,0,0,0-7.141,4.827,4.827,0,0,0-6.943,0l-0.621.64-0.622-.64A4.847,4.847,0,0,0,296.9,162h0Zm0,1.91a3.023,3.023,0,0,1,2.165.93l1.282,1.31a0.913,0.913,0,0,0,1.311,0l1.272-1.31a2.98,2.98,0,0,1,4.321,0,3.153,3.153,0,0,1,0,4.421q-3.127,3.21-6.253,6.43l-6.254-6.43a3.154,3.154,0,0,1,0-4.421,3,3,0,0,1,2.156-.93h0Z" transform="translate(-292.031 -162)"/>
</svg>
