<svg xmlns="http://www.w3.org/2000/svg" width="16.969" height="17" viewBox="0 0 16.969 17">
  <metadata><?xpacket begin="﻿" id="W5M0MpCehiHzreSzNTczkc9d"?>
<x:xmpmeta xmlns:x="adobe:ns:meta/" x:xmptk="Adobe XMP Core 5.6-c138 79.159824, 2016/09/14-01:09:01        ">
   <rdf:RDF xmlns:rdf="http://www.w3.org/1999/02/22-rdf-syntax-ns#">
      <rdf:Description rdf:about=""/>
   </rdf:RDF>
</x:xmpmeta>
                                                                                                    
                                                                                                    
                                                                                                    
                                                                                                    
                                                                                                    
                                                                                                    
                                                                                                    
                                                                                                    
                                                                                                    
                                                                                                    
                                                                                                    
                                                                                                    
                                                                                                    
                                                                                                    
                                                                                                    
                                                                                                    
                                                                                                    
                                                                                                    
                                                                                                    
                                                                                                    
                           
<?xpacket end="w"?></metadata>
<defs>
    <style>
      .cls-1 {
        fill: #ff4b2d;
        fill-rule: evenodd;
      }
    </style>
  </defs>
  <path id="Рейтинг_полный" data-name="Рейтинг полный" class="cls-1" d="M661.789,179l-0.073,0a0.927,0.927,0,0,1-.8-1.022l0.435-4.923-3.126-3.711a0.97,0.97,0,0,1,.082-1.326,0.879,0.879,0,0,1,.4-0.21l4.612-1.094,2.423-4.252a0.88,0.88,0,0,1,.767-0.457,0.859,0.859,0,0,1,.452.13,0.923,0.923,0,0,1,.312.327l2.424,4.263,4.611,1.083a0.939,0.939,0,0,1,.672,1.123,0.952,0.952,0,0,1-.2.413l-3.117,3.7,0.435,4.931a0.926,0.926,0,0,1-.81,1.017q-0.039,0-.078,0a0.853,0.853,0,0,1-.348-0.074l-4.352-1.949-4.352,1.949A0.851,0.851,0,0,1,661.789,179Z" transform="translate(-658 -162)"/>
</svg>
