<svg xmlns="http://www.w3.org/2000/svg" width="51" height="56" viewBox="0 0 51 56">
  <metadata><?xpacket begin="﻿" id="W5M0MpCehiHzreSzNTczkc9d"?>
<x:xmpmeta xmlns:x="adobe:ns:meta/" x:xmptk="Adobe XMP Core 5.6-c138 79.159824, 2016/09/14-01:09:01        ">
   <rdf:RDF xmlns:rdf="http://www.w3.org/1999/02/22-rdf-syntax-ns#">
      <rdf:Description rdf:about=""/>
   </rdf:RDF>
</x:xmpmeta>
                                                                                                    
                                                                                                    
                                                                                                    
                                                                                                    
                                                                                                    
                                                                                                    
                                                                                                    
                                                                                                    
                                                                                                    
                                                                                                    
                                                                                                    
                                                                                                    
                                                                                                    
                                                                                                    
                                                                                                    
                                                                                                    
                                                                                                    
                                                                                                    
                                                                                                    
                                                                                                    
                           
<?xpacket end="w"?></metadata>
<defs>
    <style>
      .cls-1 {
        fill: #ff4b2d;
        fill-rule: evenodd;
      }
    </style>
  </defs>
  <path id="Профиль" class="cls-1" d="M456.552,118a1.441,1.441,0,0,1-1.449-1.429,22.606,22.606,0,0,0-45.207,0,1.448,1.448,0,0,1-2.9,0,25.141,25.141,0,0,1,17.52-23.89l0.587-.191-0.54-.3a16.338,16.338,0,1,1,15.866,0l-0.539.3,0.586,0.191A25.146,25.146,0,0,1,458,116.571,1.44,1.44,0,0,1,456.552,118ZM432.5,64.853a13.261,13.261,0,1,0,13.442,13.261A13.4,13.4,0,0,0,432.5,64.853h0Z" transform="translate(-407 -62)"/>
</svg>
