<svg xmlns="http://www.w3.org/2000/svg" width="15" height="18" viewBox="0 0 15 18">
  <metadata><?xpacket begin="﻿" id="W5M0MpCehiHzreSzNTczkc9d"?>
<x:xmpmeta xmlns:x="adobe:ns:meta/" x:xmptk="Adobe XMP Core 5.6-c138 79.159824, 2016/09/14-01:09:01        ">
   <rdf:RDF xmlns:rdf="http://www.w3.org/1999/02/22-rdf-syntax-ns#">
      <rdf:Description rdf:about=""/>
   </rdf:RDF>
</x:xmpmeta>
                                                                                                    
                                                                                                    
                                                                                                    
                                                                                                    
                                                                                                    
                                                                                                    
                                                                                                    
                                                                                                    
                                                                                                    
                                                                                                    
                                                                                                    
                                                                                                    
                                                                                                    
                                                                                                    
                                                                                                    
                                                                                                    
                                                                                                    
                                                                                                    
                                                                                                    
                                                                                                    
                           
<?xpacket end="w"?></metadata>
<defs>
    <style>
      .cls-1 {
        fill: #ff4b2d;
        fill-rule: evenodd;
      }
    </style>
  </defs>
  <path id="Доставка" class="cls-1" d="M458.841,178a0.845,0.845,0,0,1-.841-0.847v-11.51a0.845,0.845,0,0,1,.841-0.848h3.44v-0.6a5,5,0,0,1,.8-2.85,2.843,2.843,0,0,1,4.83,0,4.99,4.99,0,0,1,.8,2.85v0.6h3.441a0.845,0.845,0,0,1,.841.848v11.51a0.845,0.845,0,0,1-.841.847H458.841Zm0.842-1.694h11.636v-9.816h-2.6v1.048a0.834,0.834,0,0,1-.223.615,0.9,0.9,0,0,1-1.235,0,0.836,0.836,0,0,1-.223-0.613v-1.05h-3.073v1.048a0.839,0.839,0,0,1-.224.615,0.9,0.9,0,0,1-1.234,0,0.837,0.837,0,0,1-.224-0.613v-1.05h-2.6v9.816Zm5.816-14.612a1.18,1.18,0,0,0-1.032.613,3.41,3.41,0,0,0-.5,1.885v0.6h3.073v-0.6a3.41,3.41,0,0,0-.5-1.885,1.178,1.178,0,0,0-1.033-.613h0Z" transform="translate(-458 -160)"/>
</svg>
