<svg xmlns="http://www.w3.org/2000/svg" width="18" height="13" viewBox="0 0 18 13">
  <metadata><?xpacket begin="﻿" id="W5M0MpCehiHzreSzNTczkc9d"?>
<x:xmpmeta xmlns:x="adobe:ns:meta/" x:xmptk="Adobe XMP Core 5.6-c138 79.159824, 2016/09/14-01:09:01        ">
   <rdf:RDF xmlns:rdf="http://www.w3.org/1999/02/22-rdf-syntax-ns#">
      <rdf:Description rdf:about=""/>
   </rdf:RDF>
</x:xmpmeta>
                                                                                                    
                                                                                                    
                                                                                                    
                                                                                                    
                                                                                                    
                                                                                                    
                                                                                                    
                                                                                                    
                                                                                                    
                                                                                                    
                                                                                                    
                                                                                                    
                                                                                                    
                                                                                                    
                                                                                                    
                                                                                                    
                                                                                                    
                                                                                                    
                                                                                                    
                                                                                                    
                           
<?xpacket end="w"?></metadata>
<defs>
    <style>
      .cls-1 {
        fill: #ff4b2d;
        fill-rule: evenodd;
      }
    </style>
  </defs>
  <path id="Оплата" class="cls-1" d="M555,166.22v6.558A3.238,3.238,0,0,0,558.249,176h11.5a3.239,3.239,0,0,0,3.25-3.221V166.22a3.238,3.238,0,0,0-3.25-3.22h-11.5A3.238,3.238,0,0,0,555,166.22Zm14.75,8.154h-11.5a1.605,1.605,0,0,1-1.61-1.6v-4.736H571.36v4.736A1.6,1.6,0,0,1,569.75,174.374Zm1.61-8.154v0.2H556.639v-0.2a1.605,1.605,0,0,1,1.61-1.595h11.5A1.6,1.6,0,0,1,571.36,166.22Zm-9.4,4.91h-2.869a0.813,0.813,0,1,0,0,1.625h2.869A0.813,0.813,0,1,0,561.96,171.13Z" transform="translate(-555 -163)"/>
</svg>
