<svg xmlns="http://www.w3.org/2000/svg" width="14" height="18" viewBox="0 0 14 18">
  <metadata><?xpacket begin="﻿" id="W5M0MpCehiHzreSzNTczkc9d"?>
<x:xmpmeta xmlns:x="adobe:ns:meta/" x:xmptk="Adobe XMP Core 5.6-c138 79.159824, 2016/09/14-01:09:01        ">
   <rdf:RDF xmlns:rdf="http://www.w3.org/1999/02/22-rdf-syntax-ns#">
      <rdf:Description rdf:about=""/>
   </rdf:RDF>
</x:xmpmeta>
                                                                                                    
                                                                                                    
                                                                                                    
                                                                                                    
                                                                                                    
                                                                                                    
                                                                                                    
                                                                                                    
                                                                                                    
                                                                                                    
                                                                                                    
                                                                                                    
                                                                                                    
                                                                                                    
                                                                                                    
                                                                                                    
                                                                                                    
                                                                                                    
                                                                                                    
                                                                                                    
                           
<?xpacket end="w"?></metadata>
<defs>
    <style>
      .cls-1 {
        fill: #ff4b2d;
        fill-rule: evenodd;
      }
    </style>
  </defs>
  <path id="Аддрес" class="cls-1" d="M317,99c-1.211,0-3.938-3.482-3.965-3.518C311.65,93.678,310,90.91,310,87.967a7,7,0,0,1,14,0c0,2.927-1.678,5.7-3.086,7.519C320.338,96.228,317.986,99,317,99Zm0-16.261a5.246,5.246,0,0,0-5.253,5.228c0,4.231,4.139,8.281,5.235,9.151,1.493-1.189,5.271-5.328,5.271-9.151A5.247,5.247,0,0,0,317,82.739Zm0,8.47a3.241,3.241,0,1,1,3.256-3.241A3.252,3.252,0,0,1,317,91.208Zm0-4.743a1.5,1.5,0,1,0,1.509,1.5A1.507,1.507,0,0,0,317,86.465Z" transform="translate(-310 -81)"/>
</svg>
