<svg
 xmlns="http://www.w3.org/2000/svg"
 xmlns:xlink="http://www.w3.org/1999/xlink"
 width="26px" height="27px">
<path fill-rule="evenodd"  fill="rgb(255, 75, 45)"
 d="M24.696,26.999 C24.362,26.999 24.34,26.866 23.797,26.633 L18.232,21.158 L17.955,21.328 C16.78,22.482 13.928,23.92 11.736,23.92 C5.265,23.92 0.0,17.912 0.0,11.546 C0.0,5.179 5.265,0.0 11.736,0.0 C18.208,0.0 23.473,5.179 23.473,11.546 C23.473,14.371 22.408,17.102 20.475,19.234 L20.217,19.519 L25.623,24.837 C25.869,25.79 26.3,25.398 25.999,25.735 C25.995,26.71 25.854,26.388 25.600,26.627 C25.357,26.866 25.30,26.999 24.696,26.999 ZM11.736,2.528 C6.682,2.528 2.570,6.573 2.570,11.546 C2.570,16.518 6.682,20.563 11.736,20.563 C16.775,20.563 20.874,16.518 20.874,11.546 C20.874,6.573 16.775,2.528 11.736,2.528 Z"/>
</svg>
