<svg
 xmlns="http://www.w3.org/2000/svg"
 xmlns:xlink="http://www.w3.org/1999/xlink"
 width="15px" height="15px">
<path fill-rule="evenodd"  fill="rgb(255, 75, 45)"
 d="M1.499,5.999 L13.499,5.999 C14.328,5.999 14.999,6.671 14.999,7.499 C14.999,8.328 14.328,8.999 13.499,8.999 L1.499,8.999 C0.671,8.999 0.0,8.328 0.0,7.499 C0.0,6.671 0.671,5.999 1.499,5.999 Z"/>
<path fill-rule="evenodd"  fill="rgb(255, 75, 45)"
 d="M7.499,0.0 C8.328,0.0 8.999,0.671 8.999,1.499 L8.999,13.499 C8.999,14.328 8.328,14.999 7.499,14.999 C6.671,14.999 5.999,14.328 5.999,13.499 L5.999,1.499 C5.999,0.671 6.671,0.0 7.499,0.0 Z"/>
</svg>
