<svg
 xmlns="http://www.w3.org/2000/svg"
 xmlns:xlink="http://www.w3.org/1999/xlink"
 width="13px" height="16px">
<path fill-rule="evenodd"  fill="rgb(255, 75, 45)"
 d="M6.500,0.0 C7.328,0.0 7.999,0.671 7.999,1.499 L7.999,11.499 C7.999,12.328 7.328,12.999 6.500,12.999 C5.671,12.999 4.999,12.328 4.999,11.499 L4.999,1.499 C4.999,0.671 5.671,0.0 6.500,0.0 Z"/>
<path fill-rule="evenodd"  fill="rgb(255, 75, 45)"
 d="M4.974,15.96 L0.903,11.25 C0.318,10.439 0.318,9.489 0.903,8.903 C1.489,8.317 2.439,8.317 3.25,8.903 L7.96,12.974 C7.681,13.560 7.681,14.510 7.96,15.96 C6.510,15.681 5.560,15.681 4.974,15.96 Z"/>
<path fill-rule="evenodd"  fill="rgb(255, 75, 45)"
 d="M9.974,8.903 L5.903,12.974 C5.317,13.560 5.317,14.510 5.903,15.96 C6.489,15.681 7.439,15.681 8.25,15.96 L12.96,11.25 C12.681,10.439 12.681,9.489 12.96,8.903 C11.510,8.317 10.560,8.317 9.974,8.903 Z"/>
</svg>
