<svg width="30" height="30" fill="none" xmlns="http://www.w3.org/2000/svg"><path d="M.714 5.01H5.78a4.286 4.286 0 008.442 0h15.065a.714.714 0 100-1.428H14.22a4.286 4.286 0 00-8.442 0H.714a.714.714 0 000 1.428zM10 1.44a2.857 2.857 0 110 5.713 2.857 2.857 0 010-5.713zm19.286 12.857H24.22a4.286 4.286 0 00-8.442 0H.714a.715.715 0 000 1.428H15.78a4.286 4.286 0 008.442 0h5.065a.715.715 0 000-1.428zM20 17.867a2.856 2.856 0 110-5.713 2.856 2.856 0 010 5.713zm9.286 7.143H14.22a4.286 4.286 0 00-8.442 0H.714a.714.714 0 100 1.429H5.78a4.286 4.286 0 008.442 0h15.065a.715.715 0 000-1.429zM10 28.581a2.857 2.857 0 110-5.713 2.857 2.857 0 010 5.713z" fill="#000"/></svg>