<svg width="35" height="42" viewBox="0 0 35 42" fill="none" xmlns="http://www.w3.org/2000/svg">
<path d="M17.266 0C7.87726 0 0.265991 7.63349 0.265991 17.0496C0.265991 25.5916 10.8579 36.8302 15.3214 41.1873C16.4147 42.2523 18.1432 42.2745 19.2577 41.2308C23.748 37.033 34.266 26.2185 34.266 17.0487C34.2651 7.63349 26.6547 0 17.266 0ZM17.266 22.5893C13.3842 22.5893 10.2392 19.4352 10.2392 15.5429C10.2392 11.6507 13.3842 8.49565 17.266 8.49565C21.1469 8.49565 24.2909 11.6498 24.2909 15.5429C24.2909 19.4361 21.1469 22.5893 17.266 22.5893Z" fill="#252525"/>
</svg>
