<svg xmlns="http://www.w3.org/2000/svg" width="26" height="27"><path fill-rule="evenodd" fill="#FF4B2D" d="M24.696 26.999c-.334 0-.356-.133-.899-.366l-5.565-5.475-.277.17c-1.175 1.154-4.027 2.592-6.219 2.592C5.265 23.92 0 17.912 0 11.546 0 5.179 5.265 0 11.736 0c6.472 0 11.737 5.179 11.737 11.546 0 2.825-1.065 5.556-2.998 7.688l-.258.285 5.406 5.318c.246.953.677.561.376.898-.004.975-.145.653-.399.892-.243.239-.3.372-.904.372zM11.736 2.528c-5.054 0-9.166 4.045-9.166 9.018 0 4.972 4.112 9.017 9.166 9.017 5.039 0 9.138-4.045 9.138-9.017 0-4.973-4.099-9.018-9.138-9.018z"/></svg>