<svg id="Лого" xmlns="http://www.w3.org/2000/svg" width="204" height="350"><defs><style>.cls-2{font-size:80px;font-weight:700;font-family:CeraPro;fill:#ff4b2d}</style></defs><text id="say:час" transform="matrix(.745 0 0 .739 -1.311 109.906)" font-family="CeraPro" fill="#fff" font-size="80" font-weight="700">say:час</text><text id=":" class="cls-2" transform="matrix(.745 0 0 .739 89.687 149.907)">:</text><text id=":-2" data-name=":" class="cls-2" transform="matrix(.745 0 0 .739 89.687 189.908)">:</text><text id=":_copy_2" data-name=": copy 2" class="cls-2" transform="matrix(.745 0 0 .739 89.687 229.908)">:</text><text id=":_copy_3" data-name=": copy 3" class="cls-2" transform="matrix(.745 0 0 .739 89.687 269.904)">:</text><text id=":_copy_4" data-name=": copy 4" class="cls-2" transform="matrix(.745 0 0 .739 89.687 309.904)">:</text><text id=":_copy_5" data-name=": copy 5" class="cls-2" transform="matrix(.745 0 0 .739 89.687 349.905)">:</text><text id=":_copy_6" data-name=": copy 6" class="cls-2" transform="matrix(.745 0 0 .739 89.687 389.885)">:</text><text id=":_copy_7" data-name=": copy 7" class="cls-2" transform="matrix(.745 0 0 .739 89.687 429.921)">:</text><text id=":_copy_8" data-name=": copy 8" class="cls-2" transform="matrix(.745 0 0 .739 89.687 469.906)">:</text><text id=":-3" data-name=":" class="cls-2" transform="matrix(.745 0 0 .739 89.687 69.906)">:</text><text id=":_copy" data-name=": copy" class="cls-2" transform="matrix(.745 0 0 .739 89.687 29.905)">:</text><text id="быстрый_маркетплейс" data-name="быстрый маркетплейс" transform="matrix(.745 0 0 .739 109.753 130.592)" font-size="21" font-family="CeraPro" fill="#fff">быстрый<tspan dy="25.2">маркетплейс</tspan></text></svg>