<svg
 xmlns="http://www.w3.org/2000/svg"
 xmlns:xlink="http://www.w3.org/1999/xlink"
 width="17px" height="15px">
<path fill-rule="evenodd"  fill="currentColor"
 d="M13.338,14.999 C11.319,14.999 9.676,13.340 9.676,11.300 C9.676,9.261 11.319,7.602 13.338,7.602 C15.357,7.602 16.999,9.261 16.999,11.300 C16.999,13.340 15.357,14.999 13.338,14.999 ZM13.338,9.569 C12.392,9.569 11.623,10.345 11.623,11.300 C11.623,12.255 12.392,13.32 13.338,13.32 C14.283,13.32 15.52,12.255 15.52,11.300 C15.52,10.345 14.283,9.569 13.338,9.569 ZM4.445,14.329 C4.258,14.584 3.973,14.729 3.661,14.729 C3.451,14.729 3.251,14.662 3.82,14.536 C2.649,14.212 2.558,13.594 2.877,13.159 L12.16,0.669 C12.199,0.419 12.493,0.270 12.801,0.270 C13.11,0.270 13.211,0.336 13.380,0.463 C13.812,0.785 13.903,1.403 13.584,1.840 L4.445,14.329 ZM3.661,7.397 C1.642,7.397 0.0,5.737 0.0,3.698 C0.0,1.659 1.642,0.0 3.661,0.0 C5.680,0.0 7.323,1.659 7.323,3.698 C7.323,5.737 5.680,7.397 3.661,7.397 ZM3.661,1.966 C2.716,1.966 1.947,2.743 1.947,3.698 C1.947,4.653 2.716,5.430 3.661,5.430 C4.607,5.430 5.376,4.653 5.376,3.698 C5.376,2.743 4.607,1.966 3.661,1.966 Z"/>
</svg>
