<svg
 xmlns="http://www.w3.org/2000/svg"
 xmlns:xlink="http://www.w3.org/1999/xlink"
 width="17px" height="15px">
<path fill-rule="evenodd"  fill="currentColor"
 d="M0.306,6.769 L3.915,3.189 C4.913,2.182 6.409,3.692 5.411,4.700 L4.193,5.926 C3.916,6.205 4.8,6.431 4.399,6.431 L9.249,6.431 C9.828,6.431 10.304,6.909 10.304,7.499 C10.304,8.88 9.832,8.568 9.249,8.568 L4.399,8.568 C4.10,8.568 3.916,8.794 4.193,9.73 L5.411,10.299 C6.409,11.306 4.913,12.817 3.915,11.810 L0.311,8.266 C0.109,7.852 0.110,7.183 0.306,6.769 ZM14.534,2.142 L12.420,2.142 C11.835,2.142 11.361,1.663 11.361,1.71 C11.361,0.479 11.835,0.0 12.420,0.0 L15.594,0.0 C16.374,0.0 17.3,0.643 17.3,1.428 L17.3,13.571 C17.3,14.359 16.370,15.0 15.594,15.0 L12.420,15.0 C11.835,15.0 11.361,14.520 11.361,13.928 C11.361,13.336 11.835,12.857 12.420,12.857 L14.534,12.857 C14.733,12.857 14.888,12.697 14.888,12.500 L14.888,2.499 C14.888,2.302 14.729,2.142 14.534,2.142 Z"/>
</svg>
