<svg
 xmlns="http://www.w3.org/2000/svg"
 xmlns:xlink="http://www.w3.org/1999/xlink"
 width="14px" height="16px">
<path fill-rule="evenodd"  fill="currentColor"
 d="M1.997,15.999 C0.896,15.999 0.0,15.130 0.0,14.62 L0.0,1.936 C0.0,0.868 0.896,0.0 1.997,0.0 L8.531,0.0 C8.611,0.0 8.680,0.13 8.738,0.30 L8.885,0.30 L8.917,0.60 L8.964,0.60 L9.168,0.258 L13.779,4.714 L13.952,4.882 L13.952,5.8 C13.955,5.16 13.957,5.24 13.960,5.31 C13.984,5.95 13.999,5.170 13.999,5.256 L13.999,14.62 C13.999,15.130 13.103,15.999 12.2,15.999 L1.997,15.999 ZM1.997,1.797 C1.916,1.797 1.853,1.858 1.853,1.936 L1.853,14.62 C1.853,14.140 1.916,14.202 1.997,14.202 L12.2,14.202 C12.82,14.202 12.145,14.140 12.145,14.62 L12.145,6.770 L9.661,6.789 C8.245,6.789 7.96,5.675 7.96,4.306 L7.88,1.797 L1.997,1.797 ZM8.966,4.306 C8.966,4.684 9.283,4.991 9.672,4.991 L11.327,4.991 L8.966,2.630 L8.966,4.306 Z"/>
</svg>
