<svg
 xmlns="http://www.w3.org/2000/svg"
 xmlns:xlink="http://www.w3.org/1999/xlink"
 width="17px" height="15px">
<path fill-rule="evenodd"  fill="currentColor"
 d="M10.821,14.999 C7.909,14.999 5.458,12.349 4.993,8.697 L4.971,8.521 L0.790,8.521 C0.347,8.521 0.0,8.72 0.0,7.499 C0.0,6.926 0.347,6.477 0.790,6.477 L5.12,6.477 L5.32,6.299 C5.451,2.707 7.957,0.0 10.860,0.0 L12.968,0.0 C13.411,0.0 13.759,0.448 13.759,1.21 L13.759,3.238 L16.207,3.238 C16.651,3.238 16.999,3.687 16.999,4.260 C16.999,4.833 16.651,5.282 16.207,5.282 L13.759,5.282 L13.759,9.716 L16.207,9.716 C16.651,9.716 16.999,10.165 16.999,10.738 C16.999,11.311 16.651,11.760 16.207,11.760 L13.759,11.760 L13.759,13.977 C13.759,14.550 13.411,14.999 12.968,14.999 L10.821,14.999 ZM10.899,2.92 C8.495,2.92 6.538,4.540 6.538,7.548 C6.538,10.557 8.495,13.4 10.899,13.4 L12.254,13.4 L12.254,2.92 L10.899,2.92 Z"/>
</svg>
