<svg
 xmlns="http://www.w3.org/2000/svg"
 xmlns:xlink="http://www.w3.org/1999/xlink"
 width="15px" height="18px">
<path fill-rule="evenodd"  fill="currentColor"
 d="M0.840,17.999 C0.377,17.999 0.0,17.619 0.0,17.152 L0.0,5.641 C0.0,5.174 0.377,4.794 0.840,4.794 L4.281,4.794 L4.281,4.191 C4.281,3.90 4.559,2.104 5.84,1.340 C5.662,0.500 6.565,0.1 7.499,0.1 C8.433,0.1 9.336,0.500 9.914,1.340 C10.439,2.104 10.717,3.90 10.717,4.191 L10.717,4.794 L14.158,4.794 C14.622,4.794 14.999,5.174 14.999,5.641 L14.999,17.152 C14.999,17.619 14.622,17.999 14.158,17.999 L14.158,17.999 L0.840,17.999 ZM1.682,16.304 L13.319,16.304 L13.319,6.489 L10.718,6.489 L10.718,7.537 C10.722,7.787 10.644,7.999 10.495,8.152 C10.342,8.308 10.117,8.398 9.877,8.398 C9.638,8.398 9.413,8.308 9.260,8.152 C9.110,7.999 9.33,7.787 9.36,7.538 L9.36,6.489 L5.963,6.489 L5.963,7.537 C5.967,7.787 5.890,7.999 5.740,8.152 C5.587,8.308 5.362,8.398 5.123,8.398 C4.883,8.398 4.658,8.308 4.505,8.152 C4.356,7.999 4.278,7.787 4.282,7.538 L4.282,6.489 L1.682,6.489 L1.682,16.304 ZM7.499,1.693 C7.71,1.693 6.762,1.876 6.467,2.306 C6.147,2.771 5.963,3.458 5.963,4.191 L5.963,4.794 L9.36,4.794 L9.36,4.191 C9.36,3.458 8.853,2.771 8.533,2.306 C8.237,1.876 7.928,1.693 7.499,1.693 L7.499,1.693 Z"/>
</svg>
