<svg
 xmlns="http://www.w3.org/2000/svg"
 xmlns:xlink="http://www.w3.org/1999/xlink"
 width="16px" height="17px">
<path fill-rule="evenodd"  fill="currentColor"
 d="M8.26,16.999 C7.649,16.999 7.273,16.975 6.910,16.928 C6.371,16.858 5.919,16.534 5.635,16.16 C5.427,15.623 5.338,15.147 5.323,14.832 C5.309,14.487 5.107,14.156 4.809,13.985 C4.655,13.897 4.477,13.850 4.294,13.850 C4.127,13.850 3.963,13.889 3.821,13.963 C3.459,14.146 3.7,14.266 2.639,14.275 L2.606,14.276 C2.32,14.276 1.539,14.44 1.219,13.624 C0.783,13.49 0.407,12.394 0.130,11.730 C0.73,11.239 0.22,10.696 0.274,10.201 C0.471,9.884 0.801,9.558 1.140,9.344 C1.432,9.162 1.604,8.844 1.604,8.492 C1.603,8.138 1.427,7.816 1.134,7.633 C0.794,7.417 0.464,7.91 0.270,6.781 C0.30,6.281 0.83,5.738 0.119,5.247 C0.393,4.583 0.768,3.929 1.202,3.355 C1.521,2.935 2.13,2.704 2.587,2.704 L2.620,2.704 C2.994,2.715 3.446,2.836 3.805,3.19 C3.952,3.95 4.118,3.135 4.287,3.135 C4.468,3.135 4.644,3.89 4.795,3.3 C5.94,2.832 5.287,2.512 5.300,2.168 C5.314,1.850 5.402,1.374 5.606,0.985 C5.892,0.459 6.346,0.135 6.887,0.66 C7.241,0.22 7.606,0.0 7.972,0.0 C8.350,0.0 8.726,0.23 9.89,0.70 C9.628,0.140 10.80,0.464 10.363,0.982 C10.572,1.376 10.661,1.851 10.676,2.166 C10.690,2.511 10.892,2.842 11.189,3.13 C11.344,3.101 11.522,3.148 11.705,3.148 C11.872,3.148 12.35,3.109 12.178,3.36 C12.540,2.852 12.992,2.733 13.360,2.723 L13.392,2.722 C13.967,2.722 14.459,2.954 14.779,3.374 C15.216,3.949 15.592,4.604 15.869,5.268 C16.73,5.760 16.22,6.303 15.725,6.797 C15.528,7.114 15.197,7.440 14.859,7.654 C14.567,7.837 14.394,8.154 14.395,8.506 C14.396,8.861 14.571,9.182 14.865,9.366 C15.205,9.582 15.535,9.907 15.729,10.218 C16.30,10.717 16.82,11.260 15.880,11.751 C15.606,12.415 15.231,13.69 14.797,13.643 C14.477,14.63 13.986,14.295 13.412,14.295 L13.379,14.294 C13.4,14.283 12.553,14.163 12.194,13.979 C12.46,13.903 11.880,13.863 11.712,13.863 C11.531,13.863 11.355,13.909 11.203,13.996 C10.905,14.166 10.712,14.486 10.699,14.830 C10.685,15.148 10.597,15.624 10.393,16.13 C10.106,16.539 9.653,16.863 9.112,16.932 C8.758,16.977 8.393,16.999 8.26,16.999 ZM7.255,15.113 C7.517,15.144 7.770,15.159 8.28,15.159 C8.276,15.159 8.520,15.145 8.772,15.116 C8.817,15.29 8.839,14.923 8.843,14.766 C8.881,13.788 9.431,12.882 10.280,12.397 C10.713,12.151 11.208,12.20 11.713,12.20 C12.180,12.20 12.642,12.131 13.51,12.343 C13.186,12.415 13.285,12.447 13.377,12.450 C13.680,12.41 13.925,11.612 14.124,11.146 C14.76,11.69 14.3,11.5 13.877,10.928 C13.40,10.404 12.541,9.501 12.539,8.512 C12.537,7.520 13.35,6.616 13.871,6.95 C13.996,6.18 14.68,5.956 14.114,5.882 C13.912,5.412 13.664,4.980 13.358,4.567 C13.262,4.570 13.165,4.602 13.35,4.670 C12.626,4.881 12.166,4.992 11.702,4.992 C11.195,4.992 10.696,4.860 10.260,4.610 C9.413,4.124 8.862,3.219 8.821,2.248 C8.816,2.83 8.792,1.975 8.744,1.885 C8.483,1.855 8.229,1.840 7.971,1.840 C7.723,1.840 7.479,1.853 7.227,1.882 C7.182,1.969 7.160,2.75 7.155,2.232 C7.118,3.210 6.568,4.116 5.719,4.601 C5.286,4.848 4.790,4.978 4.286,4.978 C4.286,4.978 4.286,4.978 4.285,4.978 C3.819,4.978 3.357,4.867 2.948,4.655 C2.812,4.584 2.714,4.552 2.621,4.548 C2.319,4.957 2.74,5.386 1.875,5.852 C1.923,5.929 1.996,5.993 2.121,6.70 C2.959,6.595 3.458,7.497 3.460,8.486 C3.462,9.479 2.964,10.382 2.128,10.903 C2.3,10.980 1.931,11.42 1.885,11.116 C2.87,11.587 2.335,12.19 2.641,12.431 C2.737,12.428 2.834,12.396 2.964,12.328 C3.374,12.117 3.833,12.6 4.297,12.6 C4.804,12.6 5.303,12.138 5.739,12.388 C6.586,12.874 7.137,13.779 7.178,14.750 C7.183,14.915 7.207,15.24 7.255,15.113 Z"/>
</svg>
