<svg
 xmlns="http://www.w3.org/2000/svg"
 xmlns:xlink="http://www.w3.org/1999/xlink"
 width="15px" height="20px">
<path fill-rule="evenodd"  fill="currentColor"
 d="M7.499,20.0 C6.214,20.0 3.290,16.130 3.261,16.91 C1.773,14.83 0.0,11.3 0.0,7.732 C0.0,3.468 3.364,0.0 7.499,0.0 C11.635,0.0 14.999,3.468 14.999,7.732 C14.999,10.985 13.196,14.76 11.683,16.95 C11.66,16.920 8.545,20.0 7.499,20.0 ZM7.499,1.856 C4.357,1.856 1.800,4.492 1.800,7.732 C1.800,12.501 6.334,17.64 7.480,17.995 C9.75,16.692 13.198,12.34 13.198,7.732 C13.198,4.492 10.642,1.856 7.499,1.856 ZM7.499,11.306 C5.588,11.306 4.33,9.702 4.33,7.732 C4.33,5.761 5.588,4.157 7.499,4.157 C9.411,4.157 10.966,5.761 10.966,7.732 C10.966,9.702 9.411,11.306 7.499,11.306 ZM7.499,6.14 C6.581,6.14 5.833,6.784 5.833,7.732 C5.833,8.679 6.581,9.449 7.499,9.449 C8.418,9.449 9.165,8.679 9.165,7.732 C9.165,6.784 8.418,6.14 7.499,6.14 Z"/>
</svg>
