<svg
 xmlns="http://www.w3.org/2000/svg"
 xmlns:xlink="http://www.w3.org/1999/xlink"
 width="16px" height="13px">
<path fill-rule="evenodd"  fill="currentColor"
 d="M14.955,13.13 C14.379,13.13 13.910,12.548 13.910,11.975 L13.910,1.37 C13.910,0.465 14.379,0.0 14.955,0.0 C15.531,0.0 15.999,0.465 15.999,1.37 L15.999,11.975 C15.999,12.548 15.531,13.13 14.955,13.13 ZM10.318,13.13 C9.742,13.13 9.273,12.548 9.273,11.975 L9.273,4.491 C9.273,3.919 9.742,3.454 10.318,3.454 C10.894,3.454 11.363,3.919 11.363,4.491 L11.363,11.975 C11.363,12.548 10.894,13.13 10.318,13.13 ZM5.681,13.13 C5.105,13.13 4.636,12.548 4.636,11.975 L4.636,7.946 C4.636,7.373 5.105,6.908 5.681,6.908 C6.257,6.908 6.726,7.373 6.726,7.946 L6.726,11.975 C6.726,12.548 6.257,13.13 5.681,13.13 ZM1.44,13.13 C0.468,13.13 0.0,12.548 0.0,11.975 L0.0,4.491 C0.0,3.919 0.468,3.454 1.44,3.454 C1.620,3.454 2.89,3.919 2.89,4.491 L2.89,11.975 C2.89,12.548 1.620,13.13 1.44,13.13 Z"/>
</svg>
