<svg
 xmlns="http://www.w3.org/2000/svg"
 xmlns:xlink="http://www.w3.org/1999/xlink"
 width="16px" height="13px">
<path fill-rule="evenodd"  fill="currentColor"
 d="M4.499,4.999 L14.499,4.999 C15.328,4.999 15.999,5.671 15.999,6.499 C15.999,7.328 15.328,7.999 14.499,7.999 L4.499,7.999 C3.671,7.999 2.999,7.328 2.999,6.499 C2.999,5.671 3.671,4.999 4.499,4.999 Z"/>
<path fill-rule="evenodd"  fill="currentColor"
 d="M0.903,4.974 L4.974,0.903 C5.560,0.318 6.510,0.318 7.96,0.903 C7.681,1.489 7.681,2.439 7.96,3.25 L3.25,7.96 C2.439,7.681 1.489,7.681 0.903,7.96 C0.317,6.510 0.317,5.560 0.903,4.974 Z"/>
<path fill-rule="evenodd"  fill="currentColor"
 d="M7.96,9.974 L3.25,5.903 C2.439,5.317 1.489,5.317 0.903,5.903 C0.317,6.489 0.317,7.439 0.903,8.25 L4.974,12.96 C5.560,12.681 6.510,12.681 7.96,12.96 C7.681,11.510 7.681,10.560 7.96,9.974 Z"/>
</svg>
