<svg
 xmlns="http://www.w3.org/2000/svg"
 xmlns:xlink="http://www.w3.org/1999/xlink"
 width="16px" height="16px">
<path fill-rule="evenodd"  fill="currentColor"
 d="M10.148,15.999 C9.816,15.996 9.506,15.865 9.272,15.629 L6.271,12.655 L2.873,12.655 C1.289,12.655 0.0,11.358 0.0,9.764 L0.0,2.889 C0.0,1.295 1.289,0.0 2.873,0.0 L13.126,0.0 C14.710,0.0 15.999,1.295 15.999,2.889 L15.999,9.764 C15.999,11.358 14.710,12.655 13.126,12.655 L11.196,12.655 L11.252,14.790 C11.297,15.234 11.73,15.656 10.681,15.866 C10.519,15.953 10.336,15.999 10.153,15.999 C10.153,15.999 10.148,15.999 10.148,15.999 ZM2.873,1.960 C2.363,1.960 1.949,2.377 1.949,2.889 L1.949,9.764 C1.949,10.277 2.363,10.694 2.873,10.694 L6.670,10.694 C6.927,10.697 7.167,10.798 7.348,10.978 L9.245,12.854 L9.216,11.701 L9.215,11.674 C9.215,11.133 9.653,10.694 10.190,10.694 L13.126,10.694 C13.635,10.694 14.50,10.277 14.50,9.764 L14.50,2.889 C14.50,2.377 13.635,1.960 13.126,1.960 L2.873,1.960 Z"/>
</svg>
