<svg id="Лого_подвал" data-name="Лого подвал" xmlns="http://www.w3.org/2000/svg" width="189" height="66" viewBox="0 0 189 66">
  <metadata><?xpacket begin="﻿" id="W5M0MpCehiHzreSzNTczkc9d"?>
<x:xmpmeta xmlns:x="adobe:ns:meta/" x:xmptk="Adobe XMP Core 5.6-c138 79.159824, 2016/09/14-01:09:01        ">
   <rdf:RDF xmlns:rdf="http://www.w3.org/1999/02/22-rdf-syntax-ns#">
      <rdf:Description rdf:about=""/>
   </rdf:RDF>
</x:xmpmeta>
                                                                                                    
                                                                                                    
                                                                                                    
                                                                                                    
                                                                                                    
                                                                                                    
                                                                                                    
                                                                                                    
                                                                                                    
                                                                                                    
                                                                                                    
                                                                                                    
                                                                                                    
                                                                                                    
                                                                                                    
                                                                                                    
                                                                                                    
                                                                                                    
                                                                                                    
                                                                                                    
                           
<?xpacket end="w"?></metadata>
<defs>
    <style>
      .cls-1 {
        fill: #fff;
      }

      .cls-1, .cls-2 {
        fill-rule: evenodd;
      }

      .cls-2 {
        fill: #ff4b2d;
      }
    </style>
  </defs>
  <path id="say_copy_2" data-name="say copy 2" class="cls-1" d="M1362.81,341.682a15.067,15.067,0,0,0,6.52,1.382,12.345,12.345,0,0,0,7.65-2.276,7.43,7.43,0,0,0,3.01-6.284,6.427,6.427,0,0,0-1.85-4.8,17.723,17.723,0,0,0-5.83-3.386l-2.65-1.084a10.3,10.3,0,0,1-2.24-1.137,1.52,1.52,0,0,1-.64-1.246,1.565,1.565,0,0,1,.78-1.409,4,4,0,0,1,2.15-.488,8.87,8.87,0,0,1,6.14,2.547l3.75-4.5a12.736,12.736,0,0,0-9.83-4.009,11.714,11.714,0,0,0-7.27,2.113,6.984,6.984,0,0,0-2.79,5.9,6.518,6.518,0,0,0,1.85,4.822,17.048,17.048,0,0,0,5.61,3.359l2.93,1.192a11.737,11.737,0,0,1,2.18,1.111,1.526,1.526,0,0,1,.64,1.327,1.8,1.8,0,0,1-1,1.652,4.929,4.929,0,0,1-2.48.569q-4.1,0-7.68-3.63l-3.76,4.443A12.848,12.848,0,0,0,1362.81,341.682Zm42.56-23.729a12.014,12.014,0,0,0-8.53-2.953,15.094,15.094,0,0,0-11.94,5.526l3.87,4.5a14.84,14.84,0,0,1,3.48-2.79,7.812,7.812,0,0,1,3.76-.894,5.232,5.232,0,0,1,3.78,1.246,4.563,4.563,0,0,1,1.3,3.467v1.192h-6.85a12.305,12.305,0,0,0-7.54,2.086,6.748,6.748,0,0,0-2.79,5.716,7.365,7.365,0,0,0,2.54,5.769,10.071,10.071,0,0,0,6.91,2.249,12.4,12.4,0,0,0,4.72-.867,10.578,10.578,0,0,0,3.62-2.384v2.6h6.85V326.486Q1408.55,320.9,1405.37,317.953Zm-5.93,18.257a5.9,5.9,0,0,1-4.09,1.49,4.741,4.741,0,0,1-2.85-.785,2.507,2.507,0,0,1-1.08-2.14,2.306,2.306,0,0,1,1-2.032,4.971,4.971,0,0,1,2.82-.677h5.85v0.325A4.913,4.913,0,0,1,1399.44,336.21Zm41.71-20.614h-7.85l-7.13,17.608-6.68-17.608h-7.9l10.5,25.192-0.83,1.842a5.817,5.817,0,0,1-2.32,2.872,6.936,6.936,0,0,1-3.37.758q-0.66,0-3.21-.216v6.122a19.017,19.017,0,0,0,4.81.65,10.367,10.367,0,0,0,6.41-1.951,15.305,15.305,0,0,0,4.47-6.122Z" transform="translate(-1358 -315)"/>
  <path id=":_copy_3" data-name=": copy 3" class="cls-2" d="M1445.87,323.75a5.14,5.14,0,0,0,3.7,1.435,4.943,4.943,0,0,0,3.65-1.435,5.068,5.068,0,0,0-3.65-8.642,5.09,5.09,0,0,0-3.7,1.463A5.069,5.069,0,0,0,1445.87,323.75Zm0,17.878a5.141,5.141,0,0,0,3.7,1.436,4.944,4.944,0,0,0,3.65-1.436,5.067,5.067,0,0,0-3.65-8.641,5.086,5.086,0,0,0-3.7,1.463A5.067,5.067,0,0,0,1445.87,341.628Z" transform="translate(-1358 -315)"/>
  <path id="час_copy_2" data-name="час copy 2" class="cls-1" d="M1484.52,315.6h-7.45v11.052a12.133,12.133,0,0,1-4.37.7q-5.355,0-5.36-5.688V315.6h-7.4v6.61q0,5.526,2.98,8.587a10.978,10.978,0,0,0,8.23,3.061,16.836,16.836,0,0,0,5.92-.867v9.427h7.45V315.6Zm27.32,2.357a12.014,12.014,0,0,0-8.53-2.953,15.094,15.094,0,0,0-11.94,5.526l3.87,4.5a14.84,14.84,0,0,1,3.48-2.79,7.812,7.812,0,0,1,3.76-.894,5.232,5.232,0,0,1,3.78,1.246,4.563,4.563,0,0,1,1.3,3.467v1.192h-6.85a12.305,12.305,0,0,0-7.54,2.086,6.748,6.748,0,0,0-2.79,5.716,7.365,7.365,0,0,0,2.54,5.769,10.071,10.071,0,0,0,6.91,2.249,12.4,12.4,0,0,0,4.72-.867,10.578,10.578,0,0,0,3.62-2.384v2.6h6.85V326.486Q1515.02,320.9,1511.84,317.953Zm-5.94,18.257a5.86,5.86,0,0,1-4.08,1.49,4.741,4.741,0,0,1-2.85-.785,2.507,2.507,0,0,1-1.08-2.14,2.306,2.306,0,0,1,1-2.032,4.971,4.971,0,0,1,2.82-.677h5.85v0.325A4.889,4.889,0,0,1,1505.9,336.21Zm20.92,4.985a14.807,14.807,0,0,0,7.37,1.869,13.766,13.766,0,0,0,7.05-1.788,13.087,13.087,0,0,0,4.83-4.876l-5.19-3.9a10.832,10.832,0,0,1-2.9,2.845,6.715,6.715,0,0,1-3.68,1,6.85,6.85,0,0,1-5.16-2.086,7.845,7.845,0,0,1,0-10.51,6.85,6.85,0,0,1,5.16-2.086,6.658,6.658,0,0,1,3.73,1.029,10.5,10.5,0,0,1,2.85,2.872l5.19-3.955a12.906,12.906,0,0,0-4.81-4.849,13.825,13.825,0,0,0-7.07-1.761,14.978,14.978,0,0,0-7.37,1.842,14.106,14.106,0,0,0-5.31,5.039,13.276,13.276,0,0,0-1.96,7.1,13.419,13.419,0,0,0,1.96,7.124A14.246,14.246,0,0,0,1526.82,341.2Z" transform="translate(-1358 -315)"/>
  <path id="быстрый_маркетплейс_copy" data-name="быстрый маркетплейс copy" class="cls-1" d="M1466.12,355.02a3.468,3.468,0,0,0-1.77-.47,3.32,3.32,0,0,0-1.54.37,3.13,3.13,0,0,0-1.17,1.024,7.1,7.1,0,0,1,.2-1.827,2.341,2.341,0,0,1,.95-1.252,5.1,5.1,0,0,1,2.24-.746,9.818,9.818,0,0,0,2.25-.512v-1.052a13.6,13.6,0,0,1-2.38.554,6.631,6.631,0,0,0-2.75.982,3.328,3.328,0,0,0-1.27,1.706,8.683,8.683,0,0,0-.33,2.616v1.209a4.429,4.429,0,0,0,.46,2.026,3.314,3.314,0,0,0,1.28,1.379,3.663,3.663,0,0,0,1.9.49,3.8,3.8,0,0,0,1.86-.462,3.537,3.537,0,0,0,1.33-1.265,3.29,3.29,0,0,0,.5-1.756,3.336,3.336,0,0,0-.48-1.742A3.449,3.449,0,0,0,1466.12,355.02Zm-0.64,5.161a2.524,2.524,0,0,1-1.27.327,2.443,2.443,0,0,1-1.26-.334,2.549,2.549,0,0,1-.93-0.9,2.446,2.446,0,0,1,0-2.488,2.556,2.556,0,0,1,2.19-1.223,2.524,2.524,0,0,1,1.27.327A2.457,2.457,0,0,1,1465.48,360.181Zm4.21-5.73v6.924h2.8a2.847,2.847,0,0,0,1.92-.618,2.239,2.239,0,0,0-.01-3.3,2.837,2.837,0,0,0-1.91-.618h-1.68v-2.389h-1.12Zm6.47,0v6.924h1.11v-6.924h-1.11Zm-3.73,5.957h-1.62v-2.6h1.61a1.775,1.775,0,0,1,1.16.342,1.189,1.189,0,0,1,.4.966,1.17,1.17,0,0,1-.4.96A1.736,1.736,0,0,1,1472.43,360.408Zm8.48,0.64a3.665,3.665,0,0,0,1.86.484,3.4,3.4,0,0,0,1.67-.406,3.476,3.476,0,0,0,1.23-1.1l-0.8-.611a2.563,2.563,0,0,1-3.4.761,2.487,2.487,0,0,1-.92-0.946,2.688,2.688,0,0,1-.33-1.322,2.659,2.659,0,0,1,.33-1.308,2.494,2.494,0,0,1,.92-0.946,2.522,2.522,0,0,1,1.31-.348,2.562,2.562,0,0,1,2.11,1.123l0.79-.625a3.46,3.46,0,0,0-2.91-1.508,3.665,3.665,0,0,0-1.86.484,3.523,3.523,0,0,0-1.34,1.308,3.473,3.473,0,0,0-.5,1.82A3.616,3.616,0,0,0,1480.91,361.048Zm7.95-5.616v5.943h1.1v-5.943h2.38v-0.981h-5.86v0.981h2.38Zm10.38-.661a3.42,3.42,0,0,0-1.79-.477,3.612,3.612,0,0,0-1.55.335,2.672,2.672,0,0,0-1.12.931v-1.109h-1.05v9.484h1.12V360.38a2.935,2.935,0,0,0,1.12.846,3.6,3.6,0,0,0,1.48.306,3.41,3.41,0,0,0,1.78-.477,3.361,3.361,0,0,0,1.25-1.308,3.7,3.7,0,0,0,.46-1.841,3.766,3.766,0,0,0-.45-1.834A3.307,3.307,0,0,0,1499.24,354.771Zm-0.67,5.417a2.49,2.49,0,0,1-1.28.334,2.612,2.612,0,0,1-1.21-.284,2.085,2.085,0,0,1-.9-0.875,2.844,2.844,0,0,1-.34-1.457,2.8,2.8,0,0,1,.34-1.45,2.3,2.3,0,0,1,.91-0.868,2.6,2.6,0,0,1,1.2-.284,2.433,2.433,0,0,1,2.18,1.28,2.951,2.951,0,0,1,0,2.673A2.406,2.406,0,0,1,1498.57,360.188Zm4.18-5.737v6.924h2.8a2.829,2.829,0,0,0,1.92-.618,2.249,2.249,0,0,0,0-3.3,2.865,2.865,0,0,0-1.92-.618h-1.68v-2.389h-1.12Zm6.47,0v6.924h1.12v-6.924h-1.12Zm-3.73,5.957h-1.62v-2.6h1.61a1.756,1.756,0,0,1,1.16.342,1.347,1.347,0,0,1,.01,1.926A1.765,1.765,0,0,1,1505.49,360.408Zm12.98-6.114h-0.4l-4.31,5.062v-4.9h-1.12v7.081h0.41l4.31-5.048v4.891h1.11v-7.081Zm-4.34-1.684a2.367,2.367,0,0,0,3.19,0,2.241,2.241,0,0,0,.6-1.629v-0.44h-0.94v0.412a1.581,1.581,0,0,1-.33,1.074,1.326,1.326,0,0,1-1.85,0,1.581,1.581,0,0,1-.33-1.074v-0.412h-0.94v0.44A2.241,2.241,0,0,0,1514.13,352.61Zm-53.21,18.75v7.081h1.11v-4.678l2.41,2.815h0.43l2.41-2.815v4.678h1.12V371.36h-0.39l-3.34,3.9-3.35-3.9h-0.4Zm14.34,0.725a2.779,2.779,0,0,0-2-.725,3.6,3.6,0,0,0-1.64.377,2.994,2.994,0,0,0-1.23,1.144l0.73,0.6a3.171,3.171,0,0,1,.93-0.831,2.28,2.28,0,0,1,1.13-.278,1.726,1.726,0,0,1,1.26.448,1.757,1.757,0,0,1,.45,1.3v0.6h-2.23a2.977,2.977,0,0,0-1.84.526,1.788,1.788,0,0,0-.01,2.83,2.846,2.846,0,0,0,1.78.526,3.4,3.4,0,0,0,1.38-.27,2.561,2.561,0,0,0,1-.782v0.9h1.04v-4.266A2.773,2.773,0,0,0,1475.26,372.085Zm-1.45,5.353a2.369,2.369,0,0,1-1.08.249,1.825,1.825,0,0,1-1.04-.284,0.922,0.922,0,0,1-.42-0.811,0.814,0.814,0,0,1,.39-0.732,2.118,2.118,0,0,1,1.13-.249h2.1v0.171a1.673,1.673,0,0,1-.29.967A2.047,2.047,0,0,1,1473.81,377.438Zm9.93-5.6a3.439,3.439,0,0,0-1.8-.476,3.6,3.6,0,0,0-1.54.334,2.773,2.773,0,0,0-1.13.931v-1.109h-1.04V381h1.12v-3.555a2.915,2.915,0,0,0,1.12.846,3.585,3.585,0,0,0,1.47.306,3.454,3.454,0,0,0,1.79-.476,3.375,3.375,0,0,0,1.25-1.308,3.709,3.709,0,0,0,.46-1.842,3.766,3.766,0,0,0-.45-1.834A3.384,3.384,0,0,0,1483.74,371.836Zm-0.67,5.417a2.527,2.527,0,0,1-1.29.335,2.63,2.63,0,0,1-1.21-.285,2.2,2.2,0,0,1-.9-0.874,2.951,2.951,0,0,1-.34-1.458,2.807,2.807,0,0,1,.35-1.45,2.226,2.226,0,0,1,.91-0.867,2.578,2.578,0,0,1,1.19-.285,2.484,2.484,0,0,1,1.29.342,2.453,2.453,0,0,1,.9.938,2.951,2.951,0,0,1,0,2.673A2.4,2.4,0,0,1,1483.07,377.253Zm4.18-5.737v6.925h1.12v-6.925h-1.12Zm5.95,6.925-3.32-3.782,3-3.143h-1.39l-2.98,3.171,3.28,3.754h1.41Zm7.61-3.128a4,4,0,0,0,.09-0.825,3.126,3.126,0,0,0-.42-1.621,2.954,2.954,0,0,0-1.16-1.109,3.429,3.429,0,0,0-1.64-.4,3.551,3.551,0,0,0-3.13,1.8,3.594,3.594,0,0,0-.48,1.828,3.492,3.492,0,0,0,.49,1.834,3.575,3.575,0,0,0,1.35,1.3,4,4,0,0,0,3.46.156,4.045,4.045,0,0,0,1.27-.889l-0.66-.739a2.982,2.982,0,0,1-2.16.939,2.64,2.64,0,0,1-1.77-.626,2.42,2.42,0,0,1-.82-1.649h5.58Zm-4.7-2.41a2.333,2.333,0,0,1,1.54-.548,2.187,2.187,0,0,1,1.49.533,1.893,1.893,0,0,1,.61,1.458h-4.48A2.538,2.538,0,0,1,1496.11,372.9Zm8.04-.406v5.944h1.1V372.5h2.38v-0.981h-5.86V372.5h2.38Zm4.87-.981v6.925h1.12V372.5h3.39v5.944h1.13v-6.925h-5.64Zm13.28,0h-4.78l-0.05,1.806a13.616,13.616,0,0,1-.33,3.178,1.12,1.12,0,0,1-.97,1.045,1.878,1.878,0,0,1-.29-0.029v0.925a1.221,1.221,0,0,0,.38.057,1.626,1.626,0,0,0,1.3-.555,3.629,3.629,0,0,0,.7-1.664,19.888,19.888,0,0,0,.27-2.929l0.03-.853h2.63v5.944h1.11v-6.925Zm8.56,3.8a4,4,0,0,0,.09-0.825,3.126,3.126,0,0,0-.42-1.621,3.022,3.022,0,0,0-1.16-1.109,3.429,3.429,0,0,0-1.64-.4,3.583,3.583,0,0,0-3.14,1.8,3.688,3.688,0,0,0-.47,1.828,3.492,3.492,0,0,0,.49,1.834,3.575,3.575,0,0,0,1.35,1.3,4,4,0,0,0,3.46.156,4,4,0,0,0,1.26-.889l-0.65-.739a3.016,3.016,0,0,1-2.16.939,2.64,2.64,0,0,1-1.77-.626,2.38,2.38,0,0,1-.82-1.649h5.58Zm-4.7-2.41a2.333,2.333,0,0,1,1.54-.548,2.144,2.144,0,0,1,1.48.533,1.866,1.866,0,0,1,.62,1.458h-4.48A2.538,2.538,0,0,1,1526.16,372.9Zm12.43-1.543h-0.41l-4.3,5.062v-4.906h-1.12V378.6h0.41l4.3-5.048v4.892h1.12V371.36Zm-4.34-1.685a2.107,2.107,0,0,0,1.58.618,2.161,2.161,0,0,0,1.61-.618,2.238,2.238,0,0,0,.6-1.628v-0.441h-0.94v0.412a1.579,1.579,0,0,1-.33,1.074,1.179,1.179,0,0,1-.94.377,1.164,1.164,0,0,1-.92-0.377,1.631,1.631,0,0,1-.32-1.074v-0.412h-0.95v0.441A2.2,2.2,0,0,0,1534.25,369.675Zm7.97,8.439a3.728,3.728,0,0,0,1.87.483,3.455,3.455,0,0,0,2.9-1.507l-0.8-.611a2.56,2.56,0,0,1-3.4.76,2.485,2.485,0,0,1-.92-0.945,2.593,2.593,0,0,1-.34-1.323,2.564,2.564,0,0,1,.34-1.308,2.485,2.485,0,0,1,.92-0.945,2.513,2.513,0,0,1,1.31-.349,2.559,2.559,0,0,1,2.1,1.124l0.8-.626a3.485,3.485,0,0,0-1.23-1.1,3.535,3.535,0,0,0-1.68-.4,3.728,3.728,0,0,0-1.87.483,3.686,3.686,0,0,0-1.34,1.308,3.638,3.638,0,0,0,0,3.647A3.661,3.661,0,0,0,1542.22,378.114Z" transform="translate(-1358 -315)"/>
</svg>
