<svg id="Лого_шапка" data-name="Лого шапка" xmlns="http://www.w3.org/2000/svg" width="204" height="150.5" viewBox="0 0 204 150.5">
  <metadata><?xpacket begin="﻿" id="W5M0MpCehiHzreSzNTczkc9d"?>
<x:xmpmeta xmlns:x="adobe:ns:meta/" x:xmptk="Adobe XMP Core 5.6-c138 79.159824, 2016/09/14-01:09:01        ">
   <rdf:RDF xmlns:rdf="http://www.w3.org/1999/02/22-rdf-syntax-ns#">
      <rdf:Description rdf:about=""/>
   </rdf:RDF>
</x:xmpmeta>
                                                                                                    
                                                                                                    
                                                                                                    
                                                                                                    
                                                                                                    
                                                                                                    
                                                                                                    
                                                                                                    
                                                                                                    
                                                                                                    
                                                                                                    
                                                                                                    
                                                                                                    
                                                                                                    
                                                                                                    
                                                                                                    
                                                                                                    
                                                                                                    
                                                                                                    
                                                                                                    
                           
<?xpacket end="w"?></metadata>
<defs>
    <style>
      .cls-1 {
        fill: #252525;
      }

      .cls-1, .cls-2, .cls-3 {
        fill-rule: evenodd;
      }

      .cls-2 {
        fill: #ff4b2d;
      }

      .cls-3 {
        fill: #e9e9e9;
      }
    </style>
  </defs>
  <path id="say_copy_3" data-name="say copy 3" class="cls-1" d="M1357.19,151.108a16.129,16.129,0,0,0,7.03,1.507,13.205,13.205,0,0,0,8.26-2.482,8.139,8.139,0,0,0,3.25-6.856,7.04,7.04,0,0,0-1.99-5.231,19.1,19.1,0,0,0-6.29-3.694l-2.87-1.182a10.964,10.964,0,0,1-2.41-1.241,1.644,1.644,0,0,1-.69-1.359,1.712,1.712,0,0,1,.84-1.537,4.293,4.293,0,0,1,2.32-.532,9.492,9.492,0,0,1,6.62,2.778l4.06-4.905A13.708,13.708,0,0,0,1364.7,122a12.547,12.547,0,0,0-7.84,2.305,7.642,7.642,0,0,0-3.01,6.442,7.1,7.1,0,0,0,2,5.26,18.242,18.242,0,0,0,6.05,3.665l3.16,1.3a13.139,13.139,0,0,1,2.36,1.211,1.7,1.7,0,0,1,.68,1.448,1.977,1.977,0,0,1-1.07,1.8,5.311,5.311,0,0,1-2.69.621q-4.41,0-8.28-3.96l-4.06,4.846A13.94,13.94,0,0,0,1357.19,151.108Zm45.94-25.887q-3.42-3.221-9.21-3.221a16.2,16.2,0,0,0-12.88,6.028l4.17,4.906a16.063,16.063,0,0,1,3.76-3.044,8.349,8.349,0,0,1,4.06-.975,5.618,5.618,0,0,1,4.08,1.359,5,5,0,0,1,1.4,3.783v1.3h-7.39a13.2,13.2,0,0,0-8.14,2.276,7.382,7.382,0,0,0-3.01,6.235,8.054,8.054,0,0,0,2.74,6.294,10.768,10.768,0,0,0,7.45,2.453,13.257,13.257,0,0,0,5.1-.946,11.449,11.449,0,0,0,3.91-2.6v2.837h7.39V134.53Q1406.56,128.442,1403.13,125.221Zm-6.41,19.918a6.309,6.309,0,0,1-4.41,1.625,5.048,5.048,0,0,1-3.07-.857,2.732,2.732,0,0,1-1.16-2.335,2.5,2.5,0,0,1,1.07-2.216,5.339,5.339,0,0,1,3.04-.739h6.32v0.355A5.355,5.355,0,0,1,1396.72,145.139Zm45.03-22.489h-8.47l-7.69,19.208-7.22-19.208h-8.53l11.33,27.483-0.89,2.009a6.3,6.3,0,0,1-2.51,3.133,7.369,7.369,0,0,1-3.63.827c-0.48,0-1.63-.079-3.46-0.236v6.678a20.288,20.288,0,0,0,5.19.709,11.1,11.1,0,0,0,6.91-2.127,16.68,16.68,0,0,0,4.83-6.679Z" transform="translate(-1352 -82.125)"/>
  <path id="час_copy_3" data-name="час copy 3" class="cls-1" d="M1487.55,122.65h-8.05v12.057a12.941,12.941,0,0,1-4.71.768q-5.79,0-5.79-6.2v-6.62h-7.99v7.211q0,6.029,3.22,9.367t8.89,3.34a18,18,0,0,0,6.38-.946v10.284h8.05V122.65Zm29.49,2.571q-3.435-3.221-9.22-3.221a16.219,16.219,0,0,0-12.88,6.028l4.18,4.906a15.834,15.834,0,0,1,3.75-3.044,8.376,8.376,0,0,1,4.06-.975,5.618,5.618,0,0,1,4.08,1.359,5.009,5.009,0,0,1,1.41,3.783v1.3h-7.4a13.2,13.2,0,0,0-8.14,2.276,7.382,7.382,0,0,0-3.01,6.235,8.054,8.054,0,0,0,2.74,6.294,10.8,10.8,0,0,0,7.46,2.453,13.257,13.257,0,0,0,5.1-.946,11.406,11.406,0,0,0,3.9-2.6v2.837h7.4V134.53Q1520.47,128.442,1517.04,125.221Zm-6.41,19.918a6.352,6.352,0,0,1-4.42,1.625,5.069,5.069,0,0,1-3.07-.857,2.757,2.757,0,0,1-1.16-2.335,2.522,2.522,0,0,1,1.07-2.216,5.353,5.353,0,0,1,3.05-.739h6.32v0.355A5.388,5.388,0,0,1,1510.63,145.139Zm22.57,5.437a15.891,15.891,0,0,0,7.96,2.039,14.673,14.673,0,0,0,7.6-1.95,14.143,14.143,0,0,0,5.22-5.32l-5.61-4.255a11.485,11.485,0,0,1-3.13,3.1,7.142,7.142,0,0,1-3.96,1.093,7.379,7.379,0,0,1-5.58-2.275,8.658,8.658,0,0,1,0-11.466,7.379,7.379,0,0,1,5.58-2.275,7.107,7.107,0,0,1,4.02,1.123,11.167,11.167,0,0,1,3.07,3.132l5.61-4.315a13.985,13.985,0,0,0-5.19-5.289,14.8,14.8,0,0,0-7.63-1.921,16.077,16.077,0,0,0-7.96,2.009,15.242,15.242,0,0,0-5.73,5.5,14.638,14.638,0,0,0-2.11,7.742,14.788,14.788,0,0,0,2.11,7.772A15.387,15.387,0,0,0,1533.2,150.576Z" transform="translate(-1352 -82.125)"/>
  <path id=":_copy_4" data-name=": copy 4" class="cls-2" d="M1446.1,131.545a5.511,5.511,0,0,0,4,1.566,5.5,5.5,0,1,0,0-10.993,5.455,5.455,0,0,0-4,1.6A5.566,5.566,0,0,0,1446.1,131.545Zm0,19.5a5.511,5.511,0,0,0,4,1.566,5.5,5.5,0,1,0,0-10.993,5.455,5.455,0,0,0-4,1.6A5.566,5.566,0,0,0,1446.1,151.049Z" transform="translate(-1352 -82.125)"/>
  <path id=":_copy_5" data-name=": copy 5" class="cls-3" d="M1446.1,171.545a5.511,5.511,0,0,0,4,1.566,5.5,5.5,0,1,0,0-10.993,5.455,5.455,0,0,0-4,1.6A5.566,5.566,0,0,0,1446.1,171.545Zm0,19.5a5.511,5.511,0,0,0,4,1.566,5.5,5.5,0,1,0,0-10.993,5.455,5.455,0,0,0-4,1.6A5.566,5.566,0,0,0,1446.1,191.049Z" transform="translate(-1352 -82.125)"/>
  <path id=":_copy_6" data-name=": copy 6" class="cls-3" d="M1446.1,211.545a5.511,5.511,0,0,0,4,1.566,5.5,5.5,0,1,0,0-10.993,5.455,5.455,0,0,0-4,1.6A5.566,5.566,0,0,0,1446.1,211.545Zm0,19.5a5.511,5.511,0,0,0,4,1.566,5.5,5.5,0,1,0,0-10.993,5.455,5.455,0,0,0-4,1.6A5.566,5.566,0,0,0,1446.1,231.049Z" transform="translate(-1352 -82.125)"/>
  <path id=":_copy_7" data-name=": copy 7" class="cls-3" d="M1446.1,91.545a5.51,5.51,0,0,0,4,1.566,5.5,5.5,0,1,0,0-10.993,5.456,5.456,0,0,0-4,1.6A5.566,5.566,0,0,0,1446.1,91.545Zm0,19.5a5.511,5.511,0,0,0,4,1.566,5.5,5.5,0,1,0,0-10.993,5.455,5.455,0,0,0-4,1.6A5.566,5.566,0,0,0,1446.1,111.049Z" transform="translate(-1352 -82.125)"/>
  <path id="быстрый_маркетплейс_copy_2" data-name="быстрый маркетплейс copy 2" class="cls-1" d="M1468.7,165.658a3.7,3.7,0,0,0-1.91-.512,3.523,3.523,0,0,0-1.66.4,3.34,3.34,0,0,0-1.26,1.117,7.869,7.869,0,0,1,.21-1.993,2.582,2.582,0,0,1,1.02-1.365,5.48,5.48,0,0,1,2.43-.815,10.506,10.506,0,0,0,2.42-.558v-1.148a14.206,14.206,0,0,1-2.56.6,7.025,7.025,0,0,0-2.97,1.07,3.665,3.665,0,0,0-1.38,1.862,9.844,9.844,0,0,0-.35,2.854V168.5a4.925,4.925,0,0,0,.49,2.211,3.684,3.684,0,0,0,1.39,1.5,3.9,3.9,0,0,0,2.05.535,4.032,4.032,0,0,0,2-.5,3.761,3.761,0,0,0,1.44-1.38,3.585,3.585,0,0,0,.54-1.916,3.713,3.713,0,0,0-.51-1.9A3.755,3.755,0,0,0,1468.7,165.658Zm-0.69,5.63a2.78,2.78,0,0,1-2.74-.008,2.827,2.827,0,0,1-.99-0.984,2.654,2.654,0,0,1-.37-1.35,2.681,2.681,0,0,1,.37-1.365,2.71,2.71,0,0,1,2.36-1.334,2.688,2.688,0,0,1,1.37.357,2.609,2.609,0,0,1,.99.977,2.768,2.768,0,0,1,0,2.73A2.609,2.609,0,0,1,1468.01,171.288Zm4.54-6.251v7.554h3.02a3.062,3.062,0,0,0,2.08-.675,2.291,2.291,0,0,0,.77-1.807,2.251,2.251,0,0,0-.78-1.791,3.052,3.052,0,0,0-2.07-.675h-1.81v-2.606h-1.21Zm6.98,0v7.554h1.21v-7.554h-1.21Zm-4.02,6.5h-1.75V168.7h1.74a1.876,1.876,0,0,1,1.25.372,1.487,1.487,0,0,1,.01,2.1A1.9,1.9,0,0,1,1475.51,171.536Zm9.15,0.7a3.95,3.95,0,0,0,2.01.528,3.693,3.693,0,0,0,3.13-1.644l-0.86-.667a2.724,2.724,0,0,1-4.66-.2,3.04,3.04,0,0,1,0-2.87,2.7,2.7,0,0,1,2.41-1.411,2.772,2.772,0,0,1,2.27,1.225l0.86-.682a3.729,3.729,0,0,0-3.15-1.644,3.992,3.992,0,0,0-3.46,1.954,3.873,3.873,0,0,0-.53,1.985,3.916,3.916,0,0,0,.53,1.994A3.957,3.957,0,0,0,1484.66,172.234Zm8.59-6.126v6.483h1.19v-6.483H1497v-1.071h-6.32v1.071h2.57Zm11.2-.722a3.672,3.672,0,0,0-1.94-.519,3.83,3.83,0,0,0-1.66.364,2.974,2.974,0,0,0-1.22,1.016v-1.21h-1.12v10.346h1.2v-3.878a3.194,3.194,0,0,0,1.21.923,3.859,3.859,0,0,0,1.59.334,3.679,3.679,0,0,0,1.93-.52,3.716,3.716,0,0,0,1.35-1.427,4.121,4.121,0,0,0,.49-2.009,4.178,4.178,0,0,0-.48-2A3.6,3.6,0,0,0,1504.45,165.386Zm-0.72,5.91a2.717,2.717,0,0,1-1.39.365,2.847,2.847,0,0,1-1.31-.311,2.39,2.39,0,0,1-.97-0.954,3.218,3.218,0,0,1-.36-1.59,3.072,3.072,0,0,1,.37-1.582,2.423,2.423,0,0,1,.98-0.946,2.766,2.766,0,0,1,1.29-.31,2.619,2.619,0,0,1,2.36,1.4,3.212,3.212,0,0,1,0,2.916A2.628,2.628,0,0,1,1503.73,171.3Zm4.51-6.259v7.554h3.02a3.062,3.062,0,0,0,2.08-.675,2.291,2.291,0,0,0,.77-1.807,2.251,2.251,0,0,0-.78-1.791,3.052,3.052,0,0,0-2.07-.675h-1.81v-2.606h-1.21Zm6.98,0v7.554h1.21v-7.554h-1.21Zm-4.02,6.5h-1.75V168.7h1.73a1.906,1.906,0,0,1,1.26.372,1.316,1.316,0,0,1,.44,1.055,1.292,1.292,0,0,1-.44,1.047A1.856,1.856,0,0,1,1511.2,171.536Zm14.01-6.669h-0.44l-4.65,5.522v-5.352h-1.2v7.725h0.44l4.64-5.507v5.336h1.21v-7.724Zm-4.69-1.838a2.544,2.544,0,0,0,3.45,0,2.461,2.461,0,0,0,.64-1.776v-0.481h-1.01v0.45a1.775,1.775,0,0,1-.35,1.171,1.276,1.276,0,0,1-1.01.411,1.255,1.255,0,0,1-1-.411,1.775,1.775,0,0,1-.35-1.171v-0.45h-1.02v0.481A2.467,2.467,0,0,0,1520.52,163.029Zm-57.44,20.454v7.725h1.21v-5.1l2.6,3.071h0.47l2.59-3.071v5.1h1.21v-7.725h-0.42l-3.6,4.251-3.62-4.251h-0.44Zm15.48,0.792a2.957,2.957,0,0,0-2.16-.792,3.844,3.844,0,0,0-1.76.411,3.321,3.321,0,0,0-1.34,1.249l0.8,0.652a3.6,3.6,0,0,1,1-.908,2.48,2.48,0,0,1,1.23-.3,1.841,1.841,0,0,1,1.35.488,1.907,1.907,0,0,1,.49,1.42v0.651h-2.41a3.221,3.221,0,0,0-1.99.574,1.963,1.963,0,0,0,0,3.087,3.024,3.024,0,0,0,1.91.574,3.6,3.6,0,0,0,1.49-.295,2.714,2.714,0,0,0,1.08-.853v0.977h1.13v-4.653A3.008,3.008,0,0,0,1478.56,184.275Zm-1.56,5.839a2.527,2.527,0,0,1-1.16.272,1.973,1.973,0,0,1-1.13-.31,1.011,1.011,0,0,1-.45-0.884,0.891,0.891,0,0,1,.42-0.8,2.265,2.265,0,0,1,1.22-.272h2.27v0.186a1.814,1.814,0,0,1-.32,1.055A2.2,2.2,0,0,1,1477,190.114ZM1487.72,184a3.673,3.673,0,0,0-1.94-.52,3.875,3.875,0,0,0-1.67.365,2.945,2.945,0,0,0-1.21,1.016v-1.21h-1.13V194h1.21v-3.878a3.194,3.194,0,0,0,1.21.923,3.875,3.875,0,0,0,1.59.334,3.628,3.628,0,0,0,1.92-.52,3.669,3.669,0,0,0,1.36-1.427,4.124,4.124,0,0,0,.49-2.009,4.184,4.184,0,0,0-.48-2A3.737,3.737,0,0,0,1487.72,184Zm-0.73,5.91a2.655,2.655,0,0,1-1.38.364,2.817,2.817,0,0,1-1.31-.31,2.39,2.39,0,0,1-.97-0.954,3.217,3.217,0,0,1-.37-1.59,3.07,3.07,0,0,1,.38-1.582,2.363,2.363,0,0,1,.98-0.946,2.766,2.766,0,0,1,1.29-.31,2.618,2.618,0,0,1,2.35,1.4,3.132,3.132,0,0,1,0,2.916A2.559,2.559,0,0,1,1486.99,189.913Zm4.52-6.259v7.554h1.2v-7.554h-1.2Zm6.42,7.554-3.59-4.126,3.24-3.428h-1.5l-3.21,3.459,3.54,4.095h1.52Zm8.21-3.412a4.081,4.081,0,0,0,.1-0.9,3.367,3.367,0,0,0-.46-1.768,3.176,3.176,0,0,0-1.25-1.21,3.626,3.626,0,0,0-1.77-.435,3.806,3.806,0,0,0-1.97.528,3.929,3.929,0,0,0-1.41,1.435,4,4,0,0,0-.51,1.993,3.807,3.807,0,0,0,.53,2,3.851,3.851,0,0,0,1.45,1.419,4.285,4.285,0,0,0,3.74.171,4.485,4.485,0,0,0,1.37-.97l-0.71-.806a3.225,3.225,0,0,1-2.33,1.023,2.8,2.8,0,0,1-1.91-.682,2.625,2.625,0,0,1-.89-1.8h6.02Zm-5.07-2.63a2.5,2.5,0,0,1,1.66-.6,2.337,2.337,0,0,1,1.61.582,2.078,2.078,0,0,1,.66,1.59h-4.83A2.685,2.685,0,0,1,1501.07,185.166Zm8.68-.442v6.484h1.18v-6.484h2.57v-1.07h-6.32v1.07h2.57Zm5.26-1.07v7.554h1.2v-6.484h3.66v6.484h1.22v-7.554h-6.08Zm14.33,0h-5.16l-0.05,1.97a15.16,15.16,0,0,1-.36,3.467,1.218,1.218,0,0,1-1.05,1.14,2.015,2.015,0,0,1-.31-0.031v1.008a1.279,1.279,0,0,0,.41.062,1.739,1.739,0,0,0,1.4-.605,3.909,3.909,0,0,0,.76-1.815,21.662,21.662,0,0,0,.29-3.195l0.03-.931h2.84v6.484h1.2v-7.554Zm9.24,4.142a4.75,4.75,0,0,0,.09-0.9,3.457,3.457,0,0,0-.45-1.768,3.176,3.176,0,0,0-1.25-1.21,3.682,3.682,0,0,0-1.77-.435,3.851,3.851,0,0,0-3.38,1.963,3.92,3.92,0,0,0,1.47,5.413,4.264,4.264,0,0,0,3.73.171,4.368,4.368,0,0,0,1.37-.97l-0.7-.806a3.247,3.247,0,0,1-2.34,1.023,2.822,2.822,0,0,1-1.91-.682,2.667,2.667,0,0,1-.89-1.8h6.03Zm-5.07-2.63a2.482,2.482,0,0,1,1.66-.6,2.311,2.311,0,0,1,1.6.582,2.121,2.121,0,0,1,.67,1.59h-4.84A2.7,2.7,0,0,1,1533.51,185.166Zm13.41-1.683h-0.44l-4.65,5.522v-5.351h-1.2v7.725h0.44l4.65-5.507v5.336h1.2v-7.725Zm-4.69-1.838a2.542,2.542,0,0,0,3.45,0,2.464,2.464,0,0,0,.65-1.776v-0.48h-1.02v0.449a1.773,1.773,0,0,1-.35,1.171,1.434,1.434,0,0,1-2.01,0,1.773,1.773,0,0,1-.35-1.171v-0.449h-1.02v0.48A2.464,2.464,0,0,0,1542.23,181.645Zm8.61,9.206a3.95,3.95,0,0,0,2.01.528,3.691,3.691,0,0,0,3.13-1.645l-0.86-.667a2.723,2.723,0,0,1-4.66-.2,3.04,3.04,0,0,1,0-2.87,2.7,2.7,0,0,1,2.41-1.411,2.759,2.759,0,0,1,2.27,1.225l0.86-.682a3.733,3.733,0,0,0-3.15-1.645,3.95,3.95,0,0,0-2.01.528,3.874,3.874,0,0,0-1.44,1.427,3.784,3.784,0,0,0-.54,1.985A3.966,3.966,0,0,0,1550.84,190.851Z" transform="translate(-1352 -82.125)"/>
</svg>
