<svg width="189" height="38" viewBox="0 0 189 38" fill="none" xmlns="http://www.w3.org/2000/svg">
<g clip-path="url(#clip0_1_2)">
<path fill-rule="evenodd" clip-rule="evenodd" d="M4.81006 26.682C6.85298 27.6236 9.08071 28.0958 11.33 28.064C14.0616 28.1733 16.7523 27.3728 18.98 25.788C19.9572 25.0664 20.7426 24.1162 21.2673 23.0207C21.7921 21.9252 22.0402 20.7177 21.99 19.504C22.0288 18.6197 21.8845 17.7368 21.5662 16.9108C21.2478 16.0848 20.7623 15.3336 20.14 14.704C18.4312 13.2127 16.4521 12.0632 14.3101 11.318L11.66 10.234C10.8698 9.94782 10.1175 9.56595 9.42004 9.09698C9.22126 8.95584 9.05926 8.76898 8.94788 8.55212C8.83649 8.33526 8.77897 8.0948 8.78003 7.85101C8.77014 7.56751 8.83747 7.28663 8.97485 7.03845C9.11224 6.79027 9.31456 6.5841 9.56006 6.44198C10.2169 6.08112 10.9617 5.91206 11.71 5.95401C14.0094 5.97501 16.2108 6.88821 17.85 8.501L21.6 4.001C20.3462 2.66506 18.8191 1.61532 17.1227 0.923458C15.4262 0.231592 13.6005 -0.0861202 11.77 -0.00799947C9.17961 -0.127778 6.62265 0.615393 4.5 2.10501C3.58967 2.78691 2.85965 3.68081 2.37341 4.70904C1.88718 5.73728 1.65942 6.86872 1.70996 8.005C1.67354 8.89239 1.81883 9.77785 2.13696 10.6071C2.45509 11.4363 2.93944 12.1917 3.56006 12.827C5.19581 14.2981 7.10083 15.4388 9.17004 16.186L12.1 17.378C12.8634 17.6714 13.5941 18.0437 14.28 18.489C14.49 18.6382 14.6588 18.8381 14.7708 19.0701C14.8827 19.3022 14.934 19.5587 14.92 19.816C14.9275 20.1579 14.8374 20.4949 14.6603 20.7875C14.4832 21.08 14.2264 21.3161 13.92 21.468C13.1574 21.8715 12.3022 22.0676 11.4399 22.037C8.70661 22.037 6.14668 20.827 3.76001 18.407L0 22.85C1.26948 24.4979 2.92015 25.8129 4.81006 26.682V26.682ZM47.37 2.953C45.0186 0.897313 41.9591 -0.161865 38.84 -3.86685e-06C36.5617 -0.0398736 34.3041 0.436581 32.2362 1.39361C30.1684 2.35064 28.3441 3.76341 26.9 5.526L30.77 10.026C31.7828 8.92599 32.9561 7.98536 34.25 7.23599C35.4087 6.62777 36.7016 6.32038 38.01 6.34201C39.385 6.24316 40.7434 6.69093 41.79 7.58801C42.237 8.04296 42.5836 8.58655 42.8075 9.18371C43.0314 9.78088 43.1276 10.4183 43.09 11.055V12.247H36.24C33.5667 12.1036 30.9194 12.836 28.7 14.333C27.8009 14.983 27.0759 15.8446 26.5892 16.8416C26.1026 17.8387 25.8694 18.9403 25.91 20.049C25.8801 21.1386 26.0924 22.2214 26.5316 23.219C26.9709 24.2166 27.626 25.1043 28.45 25.818C30.3931 27.4015 32.857 28.2034 35.36 28.067C36.9748 28.0881 38.5781 27.7936 40.08 27.2C41.4382 26.6637 42.6708 25.852 43.7 24.816V27.416H50.55V11.486C50.55 7.76199 49.49 4.91767 47.37 2.953V2.953ZM41.4399 21.21C40.3164 22.2098 38.8534 22.7428 37.35 22.7C36.3406 22.7488 35.3421 22.4737 34.5 21.915C34.1556 21.6768 33.8763 21.3562 33.6876 20.9824C33.499 20.6086 33.407 20.1935 33.42 19.775C33.3979 19.3789 33.4781 18.9837 33.6533 18.6278C33.8285 18.2718 34.0926 17.9671 34.42 17.743C35.2719 17.2421 36.2536 17.0064 37.24 17.066H43.09V17.391C43.1111 18.1095 42.9743 18.8239 42.6892 19.4838C42.4041 20.1436 41.9776 20.7329 41.4399 21.21V21.21ZM83.15 0.596004H75.3L68.17 18.204L61.49 0.596004H53.59L64.09 25.788L63.26 27.63C62.8191 28.8139 62.0046 29.822 60.9399 30.502C59.8985 31.0348 58.7392 31.2956 57.5699 31.26C57.1299 31.26 56.06 31.188 54.36 31.044V37.166C55.929 37.5872 57.5455 37.8056 59.17 37.816C61.4638 37.8931 63.7181 37.2069 65.58 35.865C67.5597 34.2314 69.097 32.1262 70.05 29.743L83.15 0.596004Z" fill="white"/>
<path fill-rule="evenodd" clip-rule="evenodd" d="M87.87 8.75C88.3608 9.22247 88.9407 9.59264 89.5759 9.83899C90.2111 10.0853 90.8889 10.203 91.5699 10.185C92.2441 10.2075 92.9157 10.0918 93.5435 9.84501C94.1712 9.59822 94.7417 9.22557 95.22 8.75C95.9295 8.03674 96.4108 7.12841 96.6024 6.14072C96.794 5.15303 96.6872 4.13066 96.2958 3.20383C95.9043 2.277 95.2459 1.48767 94.4043 0.936344C93.5627 0.385019 92.576 0.096668 91.5699 0.108006C90.8866 0.0909156 90.2069 0.211661 89.5712 0.463017C88.9355 0.714373 88.3569 1.0912 87.87 1.57102C87.3977 2.04191 87.0231 2.60134 86.7675 3.21729C86.5118 3.83324 86.3801 4.49359 86.3801 5.1605C86.3801 5.8274 86.5118 6.48775 86.7675 7.1037C87.0231 7.71966 87.3977 8.27911 87.87 8.75V8.75ZM87.87 26.628C88.3608 27.1006 88.9406 27.471 89.5758 27.7175C90.211 27.964 90.8888 28.0818 91.5699 28.064C92.2441 28.0863 92.9157 27.9704 93.5435 27.7235C94.1712 27.4765 94.7417 27.1037 95.22 26.628C95.9297 25.9149 96.4111 25.0066 96.6028 24.0189C96.7944 23.0312 96.6878 22.0089 96.2963 21.082C95.9048 20.1552 95.2461 19.3659 94.4044 18.8147C93.5627 18.2635 92.576 17.9754 91.5699 17.987C90.8865 17.9697 90.2068 18.0903 89.571 18.3417C88.9353 18.593 88.3567 18.97 87.87 19.45C87.3977 19.9208 87.0229 20.4801 86.7672 21.096C86.5115 21.7118 86.3798 22.3721 86.3798 23.039C86.3798 23.7059 86.5115 24.3662 86.7672 24.9821C87.0229 25.5979 87.3977 26.1573 87.87 26.628Z" fill="#FF4B2D"/>
<path fill-rule="evenodd" clip-rule="evenodd" d="M126.52 0.60002H119.07V11.652C117.669 12.1513 116.187 12.3886 114.7 12.352C111.13 12.352 109.343 10.456 109.34 6.66402V0.60002H101.94V7.21001C101.94 10.894 102.933 13.7563 104.92 15.797C106.007 16.8461 107.299 17.6595 108.716 18.1862C110.132 18.7129 111.641 18.9416 113.15 18.858C115.159 18.9248 117.164 18.6311 119.07 17.991V27.418H126.52V0.60002ZM153.84 2.95702C151.489 0.901329 148.429 -0.157849 145.31 0.00401218C143.032 -0.0358575 140.774 0.440597 138.706 1.39763C136.638 2.35466 134.814 3.76743 133.37 5.53001L137.24 10.03C138.253 8.93 139.426 7.98937 140.72 7.24C141.879 6.63178 143.172 6.3244 144.48 6.34602C145.855 6.24717 147.213 6.69494 148.26 7.59202C148.707 8.04698 149.054 8.59056 149.277 9.18773C149.501 9.78489 149.598 10.4224 149.56 11.059V12.251H142.71C140.037 12.1076 137.39 12.84 135.17 14.337C134.271 14.987 133.546 15.8487 133.059 16.8457C132.573 17.8427 132.339 18.9443 132.38 20.053C132.35 21.1426 132.562 22.2253 133.002 23.223C133.441 24.2206 134.096 25.1083 134.92 25.822C136.863 27.4055 139.327 28.2074 141.83 28.071C143.445 28.0921 145.048 27.7976 146.55 27.204C147.908 26.6677 149.141 25.856 150.17 24.82V27.42H157.02V11.486C157.02 7.76201 155.96 4.91768 153.84 2.95302V2.95702ZM147.9 21.214C146.781 22.215 145.321 22.7483 143.82 22.704C142.811 22.7528 141.812 22.4777 140.97 21.919C140.626 21.6809 140.346 21.3603 140.158 20.9865C139.969 20.6127 139.877 20.1975 139.89 19.779C139.868 19.3829 139.948 18.9878 140.123 18.6318C140.299 18.2758 140.563 17.9711 140.89 17.747C141.742 17.2461 142.724 17.0104 143.71 17.07H149.56V17.395C149.581 18.1139 149.443 18.8285 149.156 19.4879C148.869 20.1474 148.44 20.7354 147.9 21.21V21.214ZM168.82 26.199C171.072 27.4529 173.612 28.0971 176.19 28.068C178.658 28.1148 181.093 27.4973 183.24 26.28C185.255 25.1133 186.922 23.4301 188.07 21.404L182.88 17.504C182.101 18.6268 181.117 19.5921 179.98 20.349C178.876 21.031 177.598 21.3783 176.3 21.349C175.342 21.3818 174.387 21.213 173.499 20.8537C172.61 20.4944 171.806 19.9525 171.14 19.263C169.84 17.8216 169.12 15.9493 169.12 14.008C169.12 12.0667 169.84 10.1944 171.14 8.75301C171.806 8.06356 172.61 7.52167 173.499 7.16234C174.387 6.80301 175.342 6.63425 176.3 6.66701C177.618 6.63319 178.916 6.99134 180.03 7.69603C181.157 8.45954 182.125 9.43496 182.88 10.568L188.07 6.61302C186.931 4.59407 185.27 2.91908 183.26 1.76402C181.103 0.555408 178.662 -0.0527283 176.19 0.0030051C173.616 -0.0265485 171.077 0.607867 168.82 1.84502C166.637 3.02814 164.806 4.76634 163.51 6.88402C162.2 9.01845 161.521 11.4799 161.55 13.984C161.524 16.4953 162.203 18.9635 163.51 21.108C164.804 23.241 166.635 24.9969 168.82 26.2V26.199Z" fill="white"/>
</g>
<defs>
<clipPath id="clip0_1_2">
<rect width="188.06" height="37.812" fill="white"/>
</clipPath>
</defs>
</svg>
