<svg id="Лого_шапка_мобайл" data-name="Лого шапка мобайл" xmlns="http://www.w3.org/2000/svg" width="188.06" height="37.812" viewBox="0 0 188.06 37.812">
  <metadata><?xpacket begin="﻿" id="W5M0MpCehiHzreSzNTczkc9d"?>
<x:xmpmeta xmlns:x="adobe:ns:meta/" x:xmptk="Adobe XMP Core 5.6-c138 79.159824, 2016/09/14-01:09:01        ">
   <rdf:RDF xmlns:rdf="http://www.w3.org/1999/02/22-rdf-syntax-ns#">
      <rdf:Description rdf:about=""/>
   </rdf:RDF>
</x:xmpmeta>
                                                                                                    
                                                                                                    
                                                                                                    
                                                                                                    
                                                                                                    
                                                                                                    
                                                                                                    
                                                                                                    
                                                                                                    
                                                                                                    
                                                                                                    
                                                                                                    
                                                                                                    
                                                                                                    
                                                                                                    
                                                                                                    
                                                                                                    
                                                                                                    
                                                                                                    
                                                                                                    
                           
<?xpacket end="w"?></metadata>
<defs>
    <style>
      .cls-1 {
        fill: #252525;
      }

      .cls-1, .cls-2 {
        fill-rule: evenodd;
      }

      .cls-2 {
        fill: #ff4b2d;
      }
    </style>
  </defs>
  <path id="say_copy" data-name="say copy" class="cls-1" d="M1362.81,519.682a15.067,15.067,0,0,0,6.52,1.382,12.345,12.345,0,0,0,7.65-2.276,7.43,7.43,0,0,0,3.01-6.284,6.427,6.427,0,0,0-1.85-4.8,17.723,17.723,0,0,0-5.83-3.386l-2.65-1.084a10.3,10.3,0,0,1-2.24-1.137,1.52,1.52,0,0,1-.64-1.246,1.565,1.565,0,0,1,.78-1.409,4,4,0,0,1,2.15-.488,8.87,8.87,0,0,1,6.14,2.547l3.75-4.5a12.736,12.736,0,0,0-9.83-4.009,11.714,11.714,0,0,0-7.27,2.113,6.984,6.984,0,0,0-2.79,5.9,6.518,6.518,0,0,0,1.85,4.822,17.048,17.048,0,0,0,5.61,3.359l2.93,1.192a11.737,11.737,0,0,1,2.18,1.111,1.526,1.526,0,0,1,.64,1.327,1.8,1.8,0,0,1-1,1.652,4.929,4.929,0,0,1-2.48.569q-4.1,0-7.68-3.63l-3.76,4.443A12.848,12.848,0,0,0,1362.81,519.682Zm42.56-23.729a12.014,12.014,0,0,0-8.53-2.953,15.094,15.094,0,0,0-11.94,5.526l3.87,4.5a14.84,14.84,0,0,1,3.48-2.79,7.812,7.812,0,0,1,3.76-.894,5.232,5.232,0,0,1,3.78,1.246,4.563,4.563,0,0,1,1.3,3.467v1.192h-6.85a12.305,12.305,0,0,0-7.54,2.086,6.748,6.748,0,0,0-2.79,5.716,7.365,7.365,0,0,0,2.54,5.769,10.071,10.071,0,0,0,6.91,2.249,12.4,12.4,0,0,0,4.72-.867,10.578,10.578,0,0,0,3.62-2.384v2.6h6.85V504.486Q1408.55,498.9,1405.37,495.953Zm-5.93,18.257a5.9,5.9,0,0,1-4.09,1.49,4.741,4.741,0,0,1-2.85-.785,2.507,2.507,0,0,1-1.08-2.14,2.306,2.306,0,0,1,1-2.032,4.971,4.971,0,0,1,2.82-.677h5.85v0.325A4.913,4.913,0,0,1,1399.44,514.21Zm41.71-20.614h-7.85l-7.13,17.608-6.68-17.608h-7.9l10.5,25.192-0.83,1.842a5.817,5.817,0,0,1-2.32,2.872,6.936,6.936,0,0,1-3.37.758q-0.66,0-3.21-.216v6.122a19.017,19.017,0,0,0,4.81.65,10.367,10.367,0,0,0,6.41-1.951,15.305,15.305,0,0,0,4.47-6.122Z" transform="translate(-1358 -493)"/>
  <path id=":_copy_2" data-name=": copy 2" class="cls-2" d="M1445.87,501.75a5.14,5.14,0,0,0,3.7,1.435,4.943,4.943,0,0,0,3.65-1.435,5.068,5.068,0,0,0-3.65-8.642,5.09,5.09,0,0,0-3.7,1.463A5.069,5.069,0,0,0,1445.87,501.75Zm0,17.878a5.141,5.141,0,0,0,3.7,1.436,4.944,4.944,0,0,0,3.65-1.436,5.067,5.067,0,0,0-3.65-8.641,5.086,5.086,0,0,0-3.7,1.463A5.067,5.067,0,0,0,1445.87,519.628Z" transform="translate(-1358 -493)"/>
  <path id="час_copy" data-name="час copy" class="cls-1" d="M1484.52,493.6h-7.45v11.052a12.133,12.133,0,0,1-4.37.7q-5.355,0-5.36-5.688V493.6h-7.4v6.61q0,5.526,2.98,8.587a10.978,10.978,0,0,0,8.23,3.061,16.836,16.836,0,0,0,5.92-.867v9.427h7.45V493.6Zm27.32,2.357a12.014,12.014,0,0,0-8.53-2.953,15.094,15.094,0,0,0-11.94,5.526l3.87,4.5a14.84,14.84,0,0,1,3.48-2.79,7.812,7.812,0,0,1,3.76-.894,5.232,5.232,0,0,1,3.78,1.246,4.563,4.563,0,0,1,1.3,3.467v1.192h-6.85a12.305,12.305,0,0,0-7.54,2.086,6.748,6.748,0,0,0-2.79,5.716,7.365,7.365,0,0,0,2.54,5.769,10.071,10.071,0,0,0,6.91,2.249,12.4,12.4,0,0,0,4.72-.867,10.578,10.578,0,0,0,3.62-2.384v2.6h6.85V504.486Q1515.02,498.9,1511.84,495.953Zm-5.94,18.257a5.86,5.86,0,0,1-4.08,1.49,4.741,4.741,0,0,1-2.85-.785,2.507,2.507,0,0,1-1.08-2.14,2.306,2.306,0,0,1,1-2.032,4.971,4.971,0,0,1,2.82-.677h5.85v0.325A4.889,4.889,0,0,1,1505.9,514.21Zm20.92,4.985a14.807,14.807,0,0,0,7.37,1.869,13.766,13.766,0,0,0,7.05-1.788,13.087,13.087,0,0,0,4.83-4.876l-5.19-3.9a10.832,10.832,0,0,1-2.9,2.845,6.715,6.715,0,0,1-3.68,1,6.85,6.85,0,0,1-5.16-2.086,7.845,7.845,0,0,1,0-10.51,6.85,6.85,0,0,1,5.16-2.086,6.658,6.658,0,0,1,3.73,1.029,10.5,10.5,0,0,1,2.85,2.872l5.19-3.955a12.906,12.906,0,0,0-4.81-4.849,13.825,13.825,0,0,0-7.07-1.761,14.978,14.978,0,0,0-7.37,1.842,14.106,14.106,0,0,0-5.31,5.039,13.276,13.276,0,0,0-1.96,7.1,13.419,13.419,0,0,0,1.96,7.124A14.246,14.246,0,0,0,1526.82,519.2Z" transform="translate(-1358 -493)"/>
</svg>
